/* XPM */
static char *result[] = {
/* columns rows colors chars-per-pixel */
"64 64 69 1 ",
"  c #1D1D1D",
". c #1E1E1E",
"X c gray12",
"o c #202020",
"O c #1B1B1B",
"+ c gray11",
"@ c #232323",
"# c #252525",
"$ c gray14",
"% c gray15",
"& c #272727",
"* c #222222",
"= c gray13",
"- c #282828",
"; c gray7",
": c gray2",
"> c #0C0C0C",
", c gray5",
"< c #0B0B0B",
"1 c gray6",
"2 c #191919",
"3 c #151515",
"4 c #0E0E0E",
"5 c gray8",
"6 c #111111",
"7 c #101010",
"8 c #161616",
"9 c #131313",
"0 c gray4",
"q c gray9",
"w c #181818",
"e c gray10",
"r c #2A2A2A",
"t c #2C2C2C",
"y c gray17",
"u c #2F2F2F",
"i c gray16",
"p c #323232",
"a c gray19",
"s c gray18",
"d c #3A3A3A",
"f c #2D2D2D",
"g c gray25",
"h c gray23",
"j c #373737",
"k c #343434",
"l c gray20",
"z c #393939",
"x c #555555",
"c c #313131",
"v c #3E3E3E",
"b c gray24",
"n c #353535",
"m c #444444",
"M c gray44",
"N c #6A6A6A",
"B c #161615",
"V c #4E4E4E",
"C c #181817",
"Z c #212122",
"A c #181819",
"S c #070707",
"D c gray3",
"F c #060606",
"G c #222223",
"H c #1A1A1B",
"J c #1A1A19",
"K c #19191A",
"L c white",
/* pixels */
"  ......X.....X.X.XXXXXXXXXX.XXXooXXXXXX.XXXXXXXXXXX.X..XXXX....",
". OOOO+ ++++++++      .    .      .  .     +       + +++   ++ ..",
"..@#$$$##$######%##%%%%##%%%#%%%%#%%#%#######$###@@#$@##%%%$#$..",
"O&&O................X o*...X=X  ooo.........Xooo@&%o*=X .. o.$$+",
"O-;:>>>>>>>>>>>>>>>,<123>,>,1;;145;,>>>>667771,X+&&8;593;;O301#+",
"O&XO23qwwwwwwwwww2w8.@$Ow2wwqwe  =r 2eee2 .Owwot%yu#@q.*3%%e38$+",
"O&ew#=e88qqwwwwwqq2@@#$32wwww2wqwwi%wewwwO*e8$o Xtypa8=O3yoO5q$+",
"O& qqo&*o+2wq88wO=y-sp% 8wwwwwwww22@.8wqw+*Oy  #8-pdfOOww*oO98$ ",
"O& %=*X8+o**$yy-%*oi&2=%XqwwwwwqO2ewo+wwOX$sgh%fu-=@2*2wOO+O98$ ",
"O%* 2-iXOq38qeO+.=t$2ww @=2qqqwOeq22qe .+*e+2hi&sj-$2-owoqeO9q$+",
"O-ewq#*f#r-&oe=$+o#eXX.++Xo.OO+eqww2ww+eq.2wO=8X*@+pykpw@82O9q$+",
"O&++*y# 2w222.&O8eo3qqweO+O*.ewqwww2qwwwqOOw%wq8f$8$-$%#=82O9q$+",
"O&XO2e.5qq82ooe8qO=qwwwqqw2e.qwwww22wwwww w&y+q5#k@st*il-32+9q$+",
"O-26qeX8qw.o2e2wqeX8wwwwwwwq+wwwwqwwwwqq2+@*w&%82zOq@o#OoOq 98$+",
"O-e9q2+w+.O8qOwwqe.qwwwwwwwwOwwwwwwwwwwq2-&e q#-8y28@$+9woO+98$+",
"O-e52O=Oeq8ww2qwq2+qwqwwwwwqewwwwqwwqwqw#pf#.$=-*@e9..8i%o&-98$O",
"O-O52OX8wwwww2qww2Oqwwwwwwwwe2wwwwwwwwq  *XO%2o%-*O$-$%&888 qq$O",
"O-e9q2.qwwwwwwwwqwOqwwwwwwww2wwwwwwqwwq282w3w-e -r-22u*O8wwe3q$+",
"O-e9w2 qwwwwwwwwqwOqwwwwwwww22wwwwqqwwqqwqqw8qse.s 382$28wO+58$+",
"O-e9ww+qwwwwwwwwwwwwwwwwwwwww2wwwqqwwwqqqqqqw8+u8*eqwq&e8 q+58$+",
"O-e9ww+qwwwwwwww5rx;2wwwwwwwwwwwwwwwwwqqqqqqqw5%&wO359 eOe8 58$+",
"O&e9wwOqqqwwwwww8O%8wwwwwwwwwwwwwwwwwqqqqqqqqq82ro8 cgvtOq8=58$+",
"O-e9ww+qwqwwwwwwwq5wwwwwwwwwwwwwwwwwqqqqqqqqqqq8*%$lb%*nw8q*98$+",
"O-e9ww+qwqwwwwwwqwwwwwwwwwwwwwwwwwwwwqqqqqqqqqq8+*si#5e2X3e=;q$+",
"O-e9ww+qwwwwwwwwqqwwwwwwwwwwwwwwwwwwqqqqqqqqqqqqq=+%X3 qXOoO;8@O",
"+-e9wwOqwwwwwwqwqqwwwwwwwwwwwwwwwwwqqqqqqqqqqqqq8.XX 3OqqoO898@O",
"O-e9wweqwwwwwwqwqqwwwwwwwwwwwwwwwwwqqqqqqqqqqqqqqw=.e8wqww+q;8@O",
"+-e9wweqwwwwwwwwqwwwwwwwwwwwwwwwwwqqqqqqqqqqqqqqq8.Xq8q8q8w+98@O",
"O-e9wwewwwwwwwwqqwwwwwwwwwqwwwqwwwwwqqqqqqqqqqq8q8w.88qq8q8288@e",
"O-e9ww2qwqwwwwwwqwwwwwwwwwwwwwwwwwqqwwqqqqqqqqqq88qe8qqq88qq5q@e",
"O-e92q3eqqwqqwqwqqwwwwwwwwwwwwwwwwqqqqqqqqq8qq8qqqqq888q888q98@e",
"O-e56mM;2wwqqwqwwqqwwwwwwwwwwqwwqwwqqqqqqqqqqqqqqqq8qqqqq88q98@O",
"O-e56hN12wwwqwqqqwqwwwwwwwwwwwwwwqqqqqqqqqqqqqqq88qqq8qq888q;8@e",
"O-e92512qwwwwwqqqwqwwwqwwwwwwwwwwqwqqqqqqqqqqqqqqq8q88qq888q98@e",
"O-e9ww2wwwwwqwqqwwqwwwqwwwwwwwwwwqqqqqqqqqqqqqqq8888888q888q98@e",
"O-e9wwwwwwwwwwwwwqwwwwwwwwwwwqqqwwqqwqqqqqqqqqqqq8q8888qq88q;8@e",
"O-e9wwwwwwwwwqqwqwwwwwwqqqwwqqqqqwqqqqqqqq88q88888q888qq888q98@e",
"O-e92wwwwwwwwqqwqwwwwwwqwwwwqwqwwwqqqqqqqqqqqq8888q88888888q98@e",
"+-e9wwwwwwwwwqqwqqwwwwwwwwwwwqwwwqqqqqq8qq8q8qq888q88888888q;8@e",
"+-e92wwwwwwwwwwwwqwwwwqwwwwwwqwwqqqqqqqqqqqqqq8888q888qq888q98@e",
"O-O5wwwwwwqwwwwwqqwqwwwwqwwwwwwwqqqqqqqqqqq88q8888qq8888888q;8@O",
"O-e32wwwwwwwwqwwwwwwwwwwwwwwwwwqwqqqqqqqqqqqqq8q8qq88888888q;8@O",
"+-e9Owwwwwwwwwwwwqwwqqwwwwwwwwqqwqqqqqqqqqqq888888qq8888888q;8@e",
"+-e;O.qwwwwwwwwwwwwwwwwwwwwwwwwqqwqqqqqqqqqqqqq888q8888q888q;8@e",
"O-e;.#=qwwwwwwwwwwwwwqwwwwwwwwqqqqqqqqqqq8q8qq8q88888888833q;3@e",
"O-e;.$=$82wwwwwwwwwwwwwwwwwwqwqqwqqqqqqqq8qq888q88888888833q;8@e",
"O-e;O#q%*82wwwwwwwwwwwwwwwwqwwqqwqqqqqqqq8qq888888888888833q;8@2",
"+-e92$+O$@3wwwwwwwwwwwwwwwwwqqqqwqqqqqqqqq88qq88888888883338;8@2",
"O-e92$%*.i#3wwwwwwwwwq2wqwwwwqqqwqqqqq8q88q88q88888888833338;3*e",
"O-O92=*kp-r=8wwwwqwwwqXwwwwwwqqwwqqqqqq888qqqq8888888888353q;8*2",
"+i 9w%ia$$yt#38wwwq =.t3wwwwqqwwqqq88qqqq88888888888888833389w*2",
"+-X32tvroX+oucXq883+lroqqqqqqqwqqqq8qq8qq888888888888888335888*2",
"+&.4.msO.$*53=yi&*=yn#eqwqqwqqqqqqq8qq88q888888q88888888B53O93@2",
"+-@tVz3O+os@ 8;32O@*- eqwqqqqqqqqqqqqq88888888888338883839Oq68*2",
"O%fn@2w2O.p###&#$##=@+2qwqqwqqqqqqqqqq88q8888888833833833$e5;3=w",
"O-OX22ww2=c#&* @e8O%OX2qqwXqqqqqqqqqqq88888888888333339e+e$573*2",
"Oie+f23qwr&X@yy&. u%8*wqO2.wqqqqqqqqqqq888388383833393  39O@58*w",
"e-+5$#.2-**i5O=-%@fo5X.2#qO2qqqqqqqqq888883888838855e&$6339w.O=w",
"O-+3o#h&o2Oco8qqwq% wq#X 2e2wwwwwwwwwqqw8q8qqqqq88+*.8o=w5wO5CZA",
"Oi9S385504>e*>,>>7311,91,>>>>>>>>><<<<<<0<<<<<<<139<D0D,951<F1*w",
"O&f@i-#r&%#if&#%#&&#&-&%%######################&r%@#####&%$#@r=w",
" .#%%%%#%%%%#%%%%%%%%%#%%%%%#######$#$$$$$$@@$$@@@@*G@@=*=****ee",
".. + +++++    ++++++ + ++O++OOOOOOOOOOe2ee2e2222e2wwA2wwwwwwwwOe",
"..X............X.......... .  .    + +++++O+OOOOOeeOOeeeHHJeKe2e"
};
