/* XPM */
static char *result[] = {
/* columns rows colors chars-per-pixel */
"64 64 223 2 ",
"   c black",
".  c gray2",
"X  c #060606",
"o  c #070707",
"O  c gray3",
"+  c #090909",
"@  c gray4",
"#  c #0B0B0B",
"$  c gray5",
"%  c #0E0E0E",
"&  c gray6",
"*  c #101010",
"=  c #111111",
"-  c gray7",
";  c #131313",
":  c gray8",
">  c #151515",
",  c gray9",
"<  c #181818",
"1  c gray10",
"2  c #1B1B1B",
"3  c gray11",
"4  c #1D1D1D",
"5  c #1E1E1E",
"6  c #202020",
"7  c #222222",
"8  c #232323",
"9  c #252525",
"0  c gray15",
"q  c #272727",
"w  c #282828",
"e  c gray16",
"r  c #2C2C2C",
"t  c gray18",
"y  c gray19",
"u  c #323232",
"i  c #343434",
"p  c #353535",
"a  c #373737",
"s  c gray22",
"d  c #3A3A3A",
"f  c gray23",
"g  c #3C3C3C",
"h  c gray24",
"j  c #3E3E3E",
"k  c #3F3F3F",
"l  c gray25",
"z  c gray26",
"x  c #434343",
"c  c #454544",
"v  c gray27",
"b  c #464646",
"n  c gray28",
"m  c #484848",
"M  c #494949",
"N  c gray29",
"B  c gray30",
"V  c #4E4E4E",
"C  c gray31",
"Z  c #515151",
"A  c gray32",
"S  c #555555",
"D  c #565656",
"F  c gray34",
"G  c gray35",
"H  c #5B5B5B",
"J  c #5D5D5D",
"K  c gray37",
"L  c #5F5F5F",
"P  c #606060",
"I  c #626262",
"U  c #656565",
"Y  c gray40",
"T  c #676767",
"R  c #686867",
"E  c #686868",
"W  c DimGray",
"Q  c #6C6C6C",
"!  c #6D6D6D",
"~  c gray43",
"^  c #717171",
"/  c gray45",
"(  c gray46",
")  c #767676",
"_  c #777777",
"`  c gray47",
"'  c #7C7C7C",
"]  c gray49",
"[  c #7E7E7E",
"{  c #808080",
"}  c gray51",
"|  c #838383",
" . c gray52",
".. c #868685",
"X. c #888888",
"o. c #898989",
"O. c gray54",
"+. c gray55",
"@. c #8D8D8D",
"#. c #8E8E8D",
"$. c #8F8F8E",
"%. c #909090",
"&. c gray57",
"*. c #929292",
"=. c gray58",
"-. c #959595",
";. c #979797",
":. c gray60",
">. c gray61",
",. c #9D9D9D",
"<. c gray62",
"1. c #9F9F9F",
"2. c #A0A09F",
"3. c #A0A0A0",
"4. c gray63",
"5. c gray64",
"6. c #A5A5A5",
"7. c gray65",
"8. c #A7A7A7",
"9. c gray66",
"0. c #A9A9A9",
"q. c gray67",
"w. c #ACACAC",
"e. c gray68",
"r. c #AEAEAE",
"t. c #AFAFAF",
"y. c #B2B2B2",
"u. c gray70",
"i. c #B4B4B4",
"p. c gray71",
"a. c #B6B6B6",
"s. c #B7B7B7",
"d. c gray72",
"f. c #B9B9B9",
"g. c gray73",
"h. c #BCBCBC",
"j. c gray74",
"k. c gray",
"l. c #C0C0C0",
"z. c #C1C1C1",
"x. c gray76",
"c. c #C3C3C3",
"v. c gray77",
"b. c #C5C5C4",
"n. c #C5C5C5",
"m. c #C6C6C6",
"M. c gray78",
"N. c #C8C8C8",
"B. c gray79",
"V. c #CACACA",
"C. c #CBCBCB",
"Z. c gray80",
"A. c #CDCDCD",
"S. c #CECECE",
"D. c gray81",
"F. c #D0D0CF",
"G. c #D0D0D0",
"H. c gray82",
"J. c #D2D2D2",
"K. c #D3D3D2",
"L. c LightGray",
"P. c gray83",
"I. c #D5D5D4",
"U. c #D5D5D5",
"Y. c #D6D6D5",
"T. c gray84",
"R. c #D7D7D7",
"E. c #D8D8D8",
"W. c gray85",
"Q. c #DADAD9",
"!. c #DADADA",
"~. c gray86",
"^. c gainsboro",
"/. c #DDDDDD",
"(. c #DEDEDD",
"). c gray87",
"_. c #DFDFDF",
"`. c gray88",
"'. c #E1E1E1",
"]. c #E2E2E2",
"[. c #E3E3E2",
"{. c gray89",
"}. c #E4E4E3",
"|. c #E4E4E4",
" X c gray90",
".X c #E6E6E5",
"XX c #E6E6E6",
"oX c #E7E7E7",
"OX c #E8E8E7",
"+X c gray91",
"@X c #E9E9E8",
"#X c #E9E9E9",
"$X c #EAEAE9",
"%X c #EAEAEA",
"&X c #EBEBEA",
"*X c gray92",
"=X c #ECECEB",
"-X c #ECECEC",
";X c #EDEDEC",
":X c gray93",
">X c #EEEEED",
",X c #EEEEEE",
"<X c #EFEFEE",
"1X c #EFEFEF",
"2X c #F0F0EF",
"3X c gray94",
"4X c #F1F1F0",
"5X c #F1F1F1",
"6X c #F2F2F1",
"7X c gray95",
"8X c #F3F3F2",
"9X c #F3F3F3",
"0X c #F4F4F3",
"qX c #F4F4F4",
"wX c #F5F5F4",
"eX c gray96",
"rX c #F6F6F6",
"tX c gray97",
"yX c #F8F8F8",
"uX c #F9F9F9",
"iX c #FAFAF9",
"pX c #FBFBFB",
"aX c None",
/* pixels */
"aXaXaXaXaXaXaXaXaXaXaXaXaXaXaXaXaXaXaXaXaXaXaXaXaXaXaXaXaXaXaXaXaXaXaXaXaXaXaXaXaXaXaXaXaXaXaXaXaXaXaXaXaXaXaXaXaXaXaXaXaXaXaXaX",
"aXaXaXaXaXaXaXaXaXaXaXaXaXaXaXaXaXaXaXaXaXaXaXaXaXaXaXaXaXaXaXaXaXaXaXaXaXaXaXaXaXaXaXaXaXaXaXaXaXaXaXaXaXaXaXaXaXaXaXaXaXaXaXaX",
"aXaXaXaXaXaXaXaXaXaXaXaXaXaXaX3X3X7XaXaXaXaXaXaXaXaXaXaXaXaXaXaXaXaXaXaXaXaXaXaXaXaXaXaXaXaXaXaXaXaXaXaXaXaXaXaXaXaXaXaXaXaXaXaX",
"aXaXaXaXaXaXaXaX4XaXaXaXaXaXaX&XoX#XXX*X*X-X2XaXaXaXaXaXaXaXaXaXaXaXaXaXaXaXaXaXaXaXaXaXaXaXaXaXaXaXaXaXaXaXaXaXaXaXaXaXaXaXaXaX",
"aXaXaXaXaXaXaX$X`.+X<XaXaXaX4X+X_.`.'.{.`.`.{.:XaXaXaXaXaXaXaXaXaXaXaXaXaXaXaXaXaXaXaXaXaXaXaXaXaXaXaXaXaXaXaXaXaXaXaXaXaXaXaXaX",
"aXaXaXaXaXaX1X+.K v.|.1XaXaXaX5X#X X~.x.`.^./.{.3XaXaXaXaXaXaXaXaXaXaXaXaXaXaXaXaXaXaXaXaXaXaXaXaXaXaXaXaXaXaXaXaXaXaXaXaXaXaXaX",
"aXaXaXaXaXaXU.a # [ |.+X5XaXaX7X*X_./ Z S.' 0.].:XaXaXaXaXaXaXaXaXaXaXaXaXaXaXaXaXaXaXaXaXaXaXaXaXaXaXaXaXaXaXaXaXaXaXaXaXaXaXaX",
"aXaXaXaXaXrXa.6 : <.XX X2XaXaX6X>XD.t f 9.1 F ).;XaXaXaXaXaXaXaXaXaXaXaXaXaXaXaXaXaXaXaXaXaXaXaXaXaXaXaXaXaXaXaXaXaXaXaXaXaXaXaX",
"aXaXaXaXaXrX0.2 k L. XXX-X7X2X7X|.t.5.l.Z.Y @.'.,XaXaXaXaX3X7XaXaXaXaXaXaXaXaXaXaXaXaXaXaXaXaXaXaXaXaXaXaXaXaXaXaXaXaXaXaXaXaXaX",
"aXaXaXaXaXqXf.0 I /. XXX*X5XqXqXz.k N %.0.o.O.W.5XaXaX4X#X~.m.XXaXaXaXaXaXaXaXaXaXaXaXaXaXaXaXaXaXaXaXaXaXaXaXaXaXaXaXaXaXaXaXaX",
"aXaXaXaXaX9XV.g T !. X{.*X:X9X9Xg.r < : 3 0 m G.9XaX5X#X_.3.a k.8XaXaXaXaXaXaXaXaXaXaXaXaXaXaXaXaXaXaXaXaXaXaXaXaXaXaXaXaXaXaXaX",
"aXaXaXaXaX9XS.n _ W.|._.*X-X,X7XB.8 O o @ : ! |.6X2X,X_.).8.7 q.0XaXaXaXaXaXaXaXaXaXaXaXaXaXaXaXaXaXaXaXaXaXaXaXaXaXaXaXaXaXaXaX",
"aXaXaXaXaX9XL.V ,.^.'.).*X-X,X3X{.j y ] = 8 f.#X8X9X X^.~.s.k l.0XaXaXaXaXaXaXaXaXaXaXaXaXaXaXaXaXaXaXaXaXaXaXaXaXaXaXaXaXaXaXaX",
"aXaXaXaXaX7X_. .n.^.W.XX-X*X-X:X1Xi.j.|.K *. X|.-X%X).^.W.w.J ~.8XaXaXaXaXaXaXaXaXaXaXaXaXaXaXaXaXaXaXaXaXaXaXaXaXaXaXaXaXaXaXaX",
"aXaXaXaXaXaX:XW.Y.~. X1X7X-X*X-X-X,X:X*X`. X|.].`._./.!.U.d.| oXaXaXaXaXaXaXaXaXaXaXaXaXaXaXaXaXaXaXaXaXaXaXaXaXaXaXaXaXaXaXaXaX",
"aXaXaXaXaXaX,X^.(._.7X3XqX-X%X%X*X%X%X+XoX X{.'.`.)./.W.H.Z.S.1XaXaXaXaXaXaXaXaXaXaXaXaXaXaXaXaXaXaXaXaXaXaXaXaXaXaXaXaXaXaXaXaX",
"aXaXaXaXaXaX*X`.*XXX7X3X9X*XXXoX+XoXoXXX|.{.'.'.-X%X/.T.U.U.`.6XaX5X1X3XaXaXaXaXaXaXaXaXaXaXaXaXaXaXaXaXaXaXaXaXaXaXaXaXaXaXaXaX",
"aXaXaXaXaXaX*X:X5X:XaXaX7X#X|. X X X|.|. X X{. X9X7X).E.]. X%X8X4X@X+X7X1X#X&X5X3X3X4X5XaXaXaXaXaXaXaXaXaXaXaXaXaXaXaXaXaXaXaXaX",
"aXaXaXaXaXaX<XaXaXaXaXaX,X{.].{.{.{.{.%X8XeX9X7XwX3X~.+X#X1X6X6X-X_.].'.!.).`.|.{.].{.oX,X5XaXaXaXaXaXaXaXaXaXaXaXaXaXaXaXaXaXaX",
"aXaXaXaXaXaXaXaXaXaXaX1X{._.`.`.`.'.%XtXuXyXtXuXiX9X#X8X,X3XaXaX1X~._.`.'.].'.`.`.`._.).`.%X5XaXaXaXaXaXaXaXaXaXaXaXaXaXaXaXaXaX",
"aXaXaXaXaXaXaXaXaXaX4X|./.).).).).|.qXqX~.{.eXrX7XqXqXaXaXaXaXaX5X@X{.|.{.{.|.|.].'.`.`.)._.-X5XaXaXaXaXaXaXaXaXaXaXaXaXaXaXaXaX",
"aXaXaXaXaXaXaXaXaXaX<X).^.!.W./.).%XuXU.e.0.A.qX#XXX5XaXaXaXaXaXaX9X-X X XXXh.<./.{.).W.`._.{.5XaXaXaXaXaXaXaXaXaXaXaXaXaXaXaXaX",
"aXaXaXaXaXaXaXaXaX7X+X!.R.J.!.^._.5X3Xp.6.:.,.%X X'.%X6XaXaXaXaXaX5X+XXX+Xu.b z n. X-.~ L.`.`.,XaXaXaXaXaXaXaXaXaXaXaXaXaXaXaXaX",
"aXaXaXaXaXaXaX4X1X XR.T.L.E.~.!.'.rX`.7.>.$.2./.{.{. X3XaXaXaXaXaX4X#X%XD.f * q d.B.l r ;.{.`.-XaXaXaXaXaXaXaXaXaXaXaXaXaXaXaXaX",
"aXaXaXaXaXaX5X%X'.).XX5X{.W.W.W.].rXU.4.:.+.#.`.{.|. X:X6XaXaXaX5X3X%X:Xd.1   1 z.%.& @ A ^.`.-XaXaXaXaXaXaXaXaXaXaXaXaXaXaXaXaX",
"aXaXaXaX<X,X1X:XoX'.`.{.~.E.E.E.{.yXD.9...c i.|.|. XXX#X7XaXaXaX6X1X*X-X|.t.E { '.o.$ O C !.].:XaXaXaXaXaXaXaXaXaXaXaXaXaXaXaXaX",
"aXaXaXaX1X-XXX].'.`.!.T.R.R.U.T.3XpXb.R 9 m R.`. XXXXX+X1X6XaXaX7X,X%X1.Q <.'.1X-X/.t.9.S.{.{.1XaXaXaXaXaXaXaX3X1X3X5XaXaXaXaXaX",
"aXaXaXaXaXaXaX4X5X6X;X_.W.R.!.%XtXwX3.q > U )./.XXXXoX#X-X7XaXaX7X1XW.C i s W d.R.S.w.o.:.E.XX5XaXaXaXaXaX5X#X`._.).oX3XaXaXaXaX",
"aXaXaXaXaXaXaXaXaXaXaX2X-X=X2XaX6X;Xy.y 2 ! /.~.XX|. X*X*X1X8X7X7X3XD.v y w 6 e h g p p d r.*X7XaXaXaXaX5XXX~.!.5.P a.%X5XaXaXaX",
"aXaXaXaXaXaXaXaXaXaXaXaXaXaXaXaX6X-Xj.h 9 Y !.!.oX{.`.*X*X-X3X0X5X5XL.j 5 , ; = - < 8 u k d.:X7XaXaXaX6X#X^.^.S.s % _ ].4XaXaXaX",
"aXaXaXaXaXaXaXaXaXaXaXaXaXaXaXaX6X-Xl.x y ^ R.!.oX].^.*X*X-X:X1X1X5X_.k - % @ + # & , 8 G E.*X6XaXaXaX,X).^.^.L.x $ K ).4XaXaXaX",
"aXaXaXaXaXaXaXaXaXaXaXaXaXaXaXaXaX>Xc.v p &.T./.oX).~.-X*X-X:X,X1X5X-XD # O . o . @ * 4 ;.XX%X7XaXaX6X X^.^.~.^.` * L _.5XaXaXaX",
"aXaXaXaXaXaXaXaXaXaXaXaXaXaXaXaXaX3Xm.n j s.H.'.oXT.`.*X*X-X:X,X1X3X9XX.+ . H =.1 X # B W. X#X7XaX6X-X).^.^.W.R.o.1 } .X6XaXaXaX",
"aXaXaXaXaXaXaXaXaXaXaXaXaXaXaXaXaX7XD.M I P.D. X`.G.oX%X*X*X-X:X,X,X5XC.r b R.:XS   9 p.+X{.XX7X7X4X]./.^.^.R.H.` t t.*X6XaXaXaX",
"aXaXaXaXaXaXaXaXaXaXaXaXaXaXaXaXaX8X_.) r.J.R.].F._.%X-X*X*X-X-X:X:X,X:XM.T.:X,X8.g 5.oX X{.].#X,X X)./.^.~.T.A.( x v.1XaXaXaXaX",
"aXaXaXaXaXaXaXaXaXaXaXaXaXaXaXaXaX6X#XR.~.A.].T.'.#X7XqX,X*X*X*X-X-X-X-X,X:X*X*X+X~.oXXX|.{.'.`.`.)./.^.^.T.T.Z.O.A L.7XaXaXaXaX",
"aXaXaXaXaXaXaXaXaXaXaXaXaXaXaXaXaX5X&X_.T.T._.R.7X#X5X8X7X*X*X*X*X*X*X*X*X*X*X%X+XoXXX X|.].'.`._.)./.^.^.J.U.V.y.[ [.7XaXaXaXaX",
"aXaXaXaXaXaXaXaXaXaXaXaXaXaXaXaXaX5X%X/.I.].!.].qX1X,X7X8X*X#X%X*X*X*X*X*X%X#X+XXXXX X|.{.'.`._.)././.^.^.G.P.V.H.H.*XaXaXaXaXaX",
"aXaXaXaXaXaXaXaXaXaXaXaXaXaXaXaXaX6X#XW._.*X!.%XaXaX4X2X7X*XoX+X#X#X#X#X+X+XoXXXXX X|.{.].'.`.{.XX'.^.^.^.Z.T.H.S./.2XaXaXaXaXaX",
"aXaXaXaXaXaXaXaXaXaXaXaXaXaXaXaXaX7XXXQ.1X2X_.,XaXaXaXaX7X*XXXXXXXoXoXoXXXXXXX X X|.{.].'.`.}.5X9X1X).^.E.D.~.!.J.`.6XaXaXaXaXaX",
"aXaXaXaXaXaXaXaXaXaXaXaXaXaXaXaXaX5X].+X5X5X@X2XaXaXaXaX7X%X X XXXXXXXXX X X X|.{.].].'.`._.OX6XaX7X].~.G.].).'. X|.7XaXaXaXaXaX",
"aXaXaXaXaXaXaXaXaXaXaXaXaXaXaXaXaX1X-X4XaXaX1XaXaXaXaXaX5X X{.|.|.|.|.|.|.|.{.].].'.`.`._./.#XaXaX7X].T.U.7X).oX9X>XaXaXaXaXaXaX",
"aXaXaXaXaXaXaXaXaXaXaXaXaXaXaXaXaXaXaXaXaXaXaXaXaXaXaX7X%X'.].].].{.{.{.].].].'.'.`.`._.).!.&XaXaX5X_.J.*X9X`.>XaXaXaXaXaXaXaXaX",
"aXaXaXaXaXaXaXaXaXaXaXaXaXaXaXaXaXaXaXaXaXaXaXaXaXaX6X-X'.`.`.'.'.'.'.'.'.'.`.`.`._._.)./.E.*XaXaX,X!.|.7X3X+X5XaXaXaXaXaXaXaXaX",
"aXaXaXaXaXaXaXaXaXaXaXaXaXaXaXaXaXaXaXaXaXaXaXaXaX5X:X`.)._._.`.`.`.`.`.`._._._.).).)././.T.*XaXaX-X+X4XaX2X2XaXaXaXaXaXaXaXaXaX",
"aXaXaXaXaXaXaXaXaXaXaXaXaXaXaXaXaXaXaXaXaXaXaXaXaX3X'./.).).).)._._._._._.).).).)././.^.^.P.:XaXaXaXaXaXaXaXaXaXaXaXaXaXaXaXaXaX",
"aXaXaXaXaXaXaXaXaXaXaXaXaXaXaXaXaXaXaXaXaXaXaXaX5X#X^.^./././.~./././.)./././././.^.^.^.!.U.3XaXaXaXaXaXaXaXaXaXaXaXaXaXaXaXaXaX",
"aXaXaXaXaXaXaXaXaXaXaXaXaXaXaXaXaXaXaXaXaXaXaXaX7X|.~.^.^.^.T.E./././././.^.^.^.^.^.^.^.P.^.aXaXaXaXaXaXaXaXaXaXaXaXaXaXaXaXaXaX",
"aXaXaXaXaXaXaXaXaXaXaXaXaXaXaXaXaXaXaXaXaXaXaXaX4X_.~.~.^.L.J.^.^.^.^.^.^.^.^.^.~.~.~.!.D.%XaXaXaXaXaXaXaXaXaXaXaXaXaXaXaXaXaXaX",
"aXaXaXaXaXaXaXaXaXaXaXaXaXaXaXaXaXaXaXaXaXaXaX7X X!.~.E.A.S.!.~.~.~.~.~.~.~.E.R.!.~.~.H.~.6XaXaXaXaXaXaXaXaXaXaXaXaXaXaXaXaXaXaX",
"aXaXaXaXaXaXaXaXaXaXaXaXaXaXaXaXaXaXaXaXaX6X2X|.W.P.G.V.H.!.~.~.~.~.~.~.E.D.L.E.!.!.L.L.<XaXaXaXaXaXaXaXaXaXaXaXaXaXaXaXaXaXaXaX",
"aXaXaXaXaXaXaXaXaXaXaXaXaXaXaXaXaXaXaX4X,XXX!.H.G.E.oX+X!.W.W.W.!.!.!.U.V.U.!.W.W.L.K.-XaXaXaXaXaXaXaXaXaXaXaXaXaXaXaXaXaXaXaXaX",
"aXaXaXaXaXaXaXaXaXaXaXaXaXaXaXaXaXaX1XoX).!./.XX3XqXwX,X!.W.W.W.W.W.R.N.U.W.W.E.H.R.:XaXaXaXaXaXaXaXaXaXaXaXaXaXaXaXaXaXaXaXaXaX",
"aXaXaXaXaXaXaXaXaXaXaXaXaXaXaX2X5X4X7X9X9X7X:X+XXX$X:X].E.E.E.E.E.W.A.H.W.E.U.P.'.3XaXaXaXaXaXaXaXaXaXaXaXaXaXaXaXaXaXaXaXaXaXaX",
"aXaXaXaXaXaXaXaXaXaXaXaXaXaX2X:X+X+X%X#X{.^.E.T.T.R.E.R.E.E.E.E.W.H.T./.R.E.`.;XaXaXaXaXaXaXaXaXaXaXaXaXaXaXaXaXaXaXaXaXaXaXaXaX",
"aXaXaXaXaXaXaXaXaXaXaXaXaXaXaX4X=X|._.^.^.^./.~.R.R.R.R.R.R.R.R.H.J.-X]. X:XaXaXaXaXaXaXaXaXaXaXaXaXaXaXaXaXaXaXaXaXaXaXaXaXaXaX",
"aXaXaXaXaXaXaXaXaXaXaXaXaXaXaXaXaX5X3X2X2X3X3X2XoX!.T.R.R.R.U.D.P.>X6X3XaXaXaXaXaXaXaXaXaXaXaXaXaXaXaXaXaXaXaXaXaXaXaXaXaXaXaXaX",
"aXaXaXaXaXaXaXaXaXaXaXaXaXaXaXaXaXaXaXaXaXaXaXaX6X-X_.E.T.P.U.`.1XaXaXaXaXaXaXaXaXaXaXaXaXaXaXaXaXaXaXaXaXaXaXaXaXaXaXaXaXaXaXaX",
"aXaXaXaXaXaXaXaXaXaXaXaXaXaXaXaXaXaXaXaXaXaXaXaXaXaX3X=X#X$X1XaXaXaXaXaXaXaXaXaXaXaXaXaXaXaXaXaXaXaXaXaXaXaXaXaXaXaXaXaXaXaXaXaX",
"aXaXaXaXaXaXaXaXaXaXaXaXaXaXaXaXaXaXaXaXaXaXaXaXaXaXaXaXaXaXaXaXaXaXaXaXaXaXaXaXaXaXaXaXaXaXaXaXaXaXaXaXaXaXaXaXaXaXaXaXaXaXaXaX",
"aXaXaXaXaXaXaXaXaXaXaXaXaXaXaXaXaXaXaXaXaXaXaXaXaXaXaXaXaXaXaXaXaXaXaXaXaXaXaXaXaXaXaXaXaXaXaXaXaXaXaXaXaXaXaXaXaXaXaXaXaXaXaXaX",
"aXaXaXaXaXaXaXaXaXaXaXaXaXaXaXaXaXaXaXaXaXaXaXaXaXaXaXaXaXaXaXaXaXaXaXaXaXaXaXaXaXaXaXaXaXaXaXaXaXaXaXaXaXaXaXaXaXaXaXaXaXaXaXaX",
"aXaXaXaXaXaXaXaXaXaXaXaXaXaXaXaXaXaXaXaXaXaXaXaXaXaXaXaXaXaXaXaXaXaXaXaXaXaXaXaXaXaXaXaXaXaXaXaXaXaXaXaXaXaXaXaXaXaXaXaXaXaXaXaX",
"aXaXaXaXaXaXaXaXaXaXaXaXaXaXaXaXaXaXaXaXaXaXaXaXaXaXaXaXaXaXaXaXaXaXaXaXaXaXaXaXaXaXaXaXaXaXaXaXaXaXaXaXaXaXaXaXaXaXaXaXaXaXaXaX"
};
