/* XPM */
static char *result[] = {
/* columns rows colors chars-per-pixel */
"64 64 224 2 ",
"   c #04070C",
".  c #06080C",
"X  c #06090C",
"o  c #07090C",
"O  c #06090D",
"+  c #07090D",
"@  c #08090C",
"#  c #08090D",
"$  c #080A0D",
"%  c #090A0D",
"&  c #090B0D",
"*  c #0A0B0D",
"=  c #0B0B0D",
"-  c #080A0E",
";  c #080B0E",
":  c #090B0E",
">  c #090B0F",
",  c #0A0B0E",
"<  c #0B0C0D",
"1  c #090C0F",
"2  c #0A0C0E",
"3  c #0B0C0E",
"4  c #0A0C0F",
"5  c #0B0C0F",
"6  c #0B0D0F",
"7  c #0E0D0D",
"8  c #0C0C0E",
"9  c #0C0D0E",
"0  c #0D0D0E",
"q  c #0C0D0F",
"w  c #0D0D0F",
"e  c #0E0D0E",
"r  c #0D0E0F",
"t  c #0F0E0E",
"y  c #100F0F",
"u  c #12100E",
"i  c #13110F",
"p  c #14120F",
"a  c #15120F",
"s  c #16120F",
"d  c #18140F",
"f  c #19140F",
"g  c #0A0D10",
"h  c #0B0D10",
"j  c #0C0D10",
"k  c #0C0E10",
"l  c #0D0E10",
"z  c #0D0E11",
"x  c #0E0E10",
"c  c #0E0F10",
"v  c #0E0F11",
"b  c #0F0F11",
"n  c #0F1011",
"m  c #0F1114",
"M  c #131210",
"N  c #101012",
"B  c #101113",
"V  c #111113",
"C  c #111213",
"Z  c #141210",
"A  c #151210",
"S  c #161310",
"D  c #121214",
"F  c #131315",
"G  c #131415",
"H  c #131417",
"J  c #141516",
"K  c #151517",
"L  c #181410",
"P  c #191510",
"I  c #1A1510",
"U  c #1B1610",
"Y  c #1D1710",
"T  c #1F1810",
"R  c #1F1911",
"E  c #1F1912",
"W  c #1B1814",
"Q  c #19191B",
"!  c #191A1B",
"~  c #1A1A1C",
"^  c #1A1B1C",
"/  c #1C1D1E",
"(  c #201911",
")  c #211911",
"_  c #231B11",
"`  c #251C12",
"'  c #261D12",
"]  c #271D12",
"[  c #281E12",
"{  c #2A1F12",
"}  c #211F1C",
"|  c #2B2013",
" . c #2D2113",
".. c #2E2213",
"X. c #2F2213",
"o. c #2F2313",
"O. c #302314",
"+. c #302414",
"@. c #312414",
"#. c #332514",
"$. c #342614",
"%. c #352614",
"&. c #3F2D16",
"*. c #30271C",
"=. c #382A18",
"-. c #1E1E20",
";. c #1F1F21",
":. c #202021",
">. c #212122",
",. c #222324",
"<. c #242324",
"1. c #252324",
"2. c #252424",
"3. c #242425",
"4. c #252425",
"5. c #262425",
"6. c #262627",
"7. c #2B2B2C",
"8. c #2C2C2D",
"9. c #2F3030",
"0. c #3F3F3F",
"q. c #412E16",
"w. c #412E17",
"e. c #422F16",
"r. c #443017",
"t. c #453117",
"y. c #473217",
"u. c #463118",
"i. c #4B3418",
"p. c #4C3518",
"a. c #4E3618",
"s. c #4D361A",
"d. c #4C381F",
"f. c #523919",
"g. c #533A19",
"h. c #51391A",
"j. c #583D1A",
"k. c #593D1A",
"l. c #583D1B",
"z. c #5A3E1B",
"x. c #593E1C",
"c. c #483B2A",
"v. c #573F20",
"b. c #5D401D",
"n. c #60421C",
"m. c #63431C",
"M. c #64451C",
"N. c #65451C",
"B. c #67461D",
"V. c #68471D",
"C. c #6A491E",
"Z. c #6F4C1E",
"A. c #704C1E",
"S. c #744F1F",
"D. c #76501F",
"F. c #77501F",
"G. c #77511F",
"H. c #604523",
"J. c #694B23",
"K. c #634928",
"L. c #785120",
"P. c #795220",
"I. c #7A5220",
"U. c #7B5320",
"Y. c #7C5420",
"T. c #7F5621",
"R. c gray26",
"E. c #58585A",
"W. c #59595B",
"Q. c #805621",
"!. c #815721",
"~. c #835821",
"^. c #845922",
"/. c #855922",
"(. c #865A22",
"). c #865B22",
"_. c #875B22",
"`. c #885B22",
"'. c #8D5E23",
"]. c #8F6024",
"[. c #8F6126",
"{. c #906023",
"}. c #906024",
"|. c #906124",
" X c #926124",
".X c #926224",
"XX c #946324",
"oX c #956425",
"OX c #966425",
"+X c #986625",
"@X c #996625",
"#X c #9C6826",
"$X c #9D6926",
"%X c #A16C27",
"&X c #A26C27",
"*X c #A36D27",
"=X c #A66F27",
"-X c #A66F28",
";X c #A76F28",
":X c #A87028",
">X c #A97028",
",X c #AB7128",
"<X c #AB7228",
"1X c #AC7228",
"2X c #AD7328",
"3X c #AD7329",
"4X c #AE7429",
"5X c #AF7429",
"6X c #B07529",
"7X c #B17629",
"8X c #B2762A",
"9X c #B3772A",
"0X c #B4772A",
"qX c #B5782A",
"wX c #B97A2B",
"eX c #B97B2B",
"rX c #BB7C2B",
"tX c #BE7E2B",
"yX c #A06F30",
"uX c #CC872E",
"iX c #CE882E",
"pX c #D48C2F",
"aX c #D99031",
"sX c None",
/* pixels */
"sXsXsXsXsXsXsXsXsXsXsXsXsXsXsXsXsXsXsXsXsXsXsXsXsXsXsXsXsXsXsXsXsXsXsXsXsXsXsXsXsXsXsXsXsXsXsXsXsXsXsXsXsXsXsXsXsXsXsXsXsXsXsXsX",
"sXsXsXsXsXsXsXsXsXsXsXsXsXsXsXsXsXsXsXsXsXsXsXsXsXsXsXsXsXsXsXsXsXsXsXsXsXsXsXsXsXsXsXsXsXsXsXsXsXsXsXsXsXsXsXsXsXsXsXsXsXsXsXsX",
"sXsXsXsXsXsXsXsXsXsXsXsXsXsXsXsXsXsXsXsXsXsXsXsXsXsXsXsXsXsXsXsXsXsXsXsXsXsXsXsXsXsXsXsXsXsXsXsXsXsXsXsXsXsXsXsXsXsXsXsXsXsXsXsX",
"sXsXsXsXsXsXsXsXsXsXsXsXsXsXsXsXsXsXsXsXsXsXsXsXsXsXsXsXsXsX< sXsXsXsXsXsXsXsXsXsXsXsXsXsXsXsXsXsXsXsXsXsXsXsXsXsXsXsXsXsXsXsXsX",
"sXsXsXsXsXsXsXsXsXsXsXsXsXsXsXsXsXsXsXsXsXsXsXsXsXsXsXsXsX3 * 8 sXsXsXsXsXsXsXsXsXsXsXsXsXsXsXsXsXsXsXsXsXsXsXsXsXsXsXsXsXsXsXsX",
"sXsXsXsXsXsXsXsXsXsXsXsXsXsXsXsXsXsXsXsXsXsXsXsXsXsXsXsXsX* * * sXsXsXsXsXsXsXsXsXsXsXsXsXsXsXsXsXsXsXsXsXsXsXsXsXsXsXsXsXsXsXsX",
"sXsXsXsXsXsXsXsXsXsXsXsXsXsXsXsXsXsXsXsXsXsXsXsXsXsXsXsX3 * * * 3 sXsXsXsXsXsXsXsXsXsXsXsXsXsXsXsXsXsXsXsXsXsXsXsXsXsXsXsXsXsXsX",
"sXsXsXsXsXsXsXsXsXsXsXsXsXsXsXsXsXsXsXsXsXsXsXsXsXsXsXsX* * * * * sXsXsXsXsXsXsXsXsXsXsXsXsXsXsXsXsXsXsXsXsXsXsXsXsXsXsXsXsXsXsX",
"sXsXsXsXsXsXsXsXsXsXsXsXsXsXsXsXsXsXsXsXsXsXsXsXsXsXsX3 * * * * * * sXW.sXsXsXsXsXsXsXsXsXsXsXsXsXsXsXsXsXsXsXsXsXsXsXsXsXsXsXsX",
"sXsXsXsXsXsXsXsXsXsXsXsXsXsXsXsXsXsXsXsXsXsXsXsXsXsX9 * * * * * * * sXsXsXW.W.sXsXsXsXsXsXsXsXsXsXsXsXsXsXsXsXsXsXsXsXsXsXsXsXsX",
"sXsXsXsXsXsXsXsXsXsXsXsXsXsXsXE.sXsXsXsXsXsXsXsXsXsX* * * * * * * * 3 sXsXsXsXsXsXsXsXsXsXsXsXsXsXsXsXsXsXsXsXsXsXsXsXsXsXsXsXsX",
"sXsXsXsXsXsXsXsXsXsXsXsXsXsXsXsXW.sXsXsXsXsXsXsXsXq * * * * * * * * * sXsXsXsXsXsXsXR.R.sXsXsXsXsXsXsXsXsXsXsXsXsXsXsXsXsXsXsXsX",
"sXsXsXsXsXsXsXsXsXsXsXsXsXsXsXsXsXsXW.W.sXsXsXsXsXv * * * * * * * * * = sXsXsXsXsXsXsXR.R.R.R.R.sXsXsXR.sXsXsXsXsXsXsXsX1.sXsXsX",
"sXsXsXsXsXsXsXsXsXsXsXsXsXsXsXsXsXsXsXsXsXsXsXsX9.J * * * * * * * * * * 3 sXsXsXsXsXsXsXsXsXR.R.R.R.R.R.sXsXsXsXsXsXsX1.1.sXsXsX",
"sXsXsXsXsXsXsXsXsXsXsXsXsXsXsXsXsXsXsXsXsXsXsX0.;.q * * * * * * * 3 3 * * sXsXsXsXsXsXsXsXsXsXsXsXsXsXsXsXsXsXsXsXsXsX5.5.sXsXsX",
"sXsXsXsXsXsXsXsXsXsXsXsXsXsXsXsXsXsXsXsXsXsXsXR.8./ F * = = = * K ^ 6.:.D 8 sXsXsXsXsXsXsXsXsXsXsXsXsXsXsXsXsXsXsXsX1.5.5.1.sXsX",
"sXsXsXsXsXsXsXsXsXsXsXsXsXsXsXsXsXsXsXsXsXsXsXsXV n c w w q 6 q c v ! >.sXsXsXsXsXsXsXsXsXsXsXsXsXsXsXsXsXsXsXsXsX1.5.5.5.5.sXsX",
"sXsXsXsXsXsXsXsXsXsXsXsXsXsXsXsXsXsXsXsXsXsXsXsXsXl 9 q 2 M E y 3 9 l -.sXsXsXsXsXsXsXsXsXsXsXsXsXsXsXsXsXsXsX1.5.5.5.5.5.sXsXsX",
"sXsXsXsXsXsXsXsXsXsXsXsXsXsXsXsXsXsXR.sXsXsXsXsXsX8 * % Y )./.G.u & * sXsXsXsXsXsXsXsXsXsXsXsXsXsXsXsXsX5.5.5.5.5.5.sXsXsXsXsXsX",
"sXsXsXsXsXsXsXsXsXsXsXsXsXsXsXsXsXR.R.sXsXsXsXsXsXq * + M.uX].iXt.o * sXsXsXsX1.5.sXsXsXsXsXsXsXsX2.5.5.5.5.5.5.5.1.sXsXsXsXsXsX",
"sXsXsXsXsXsXsXsXsXsXsXsXsXsXsXR.R.sXsXsXsXsXsXsXsXsX* $ B.3XF.7Xi.o * sXsXsXsXsX5.5.5.5.5.5.5.5.5.5.5.5.5.5.4.sXsXsXsXsXsXsXsXsX",
"sXsXsXsXsXsXsXsXsXsXsXsXsXR.sXsXsXsXsXsXsXsXsXsXsXsX3 $ Y.pX XaXH.+ * sXsXsXsXsX1.5.5.5.5.5.5.5.5.5.5.5.5.1.sXsXsXsXsXsXsXsXsXsX",
"sXsXsXsXsXsXsXsXsXsXsXsXsXsXsXsXsXsXsXsXsXsXsXsXsXsX,.l =.h.%.v.*., 3 sXsXsXsXsXsX5.5.5.5.5.5.5.sXsXsXsXsXsXsXsXsXsXsXsXsXsXsXsX",
"sXsXsXsXsXsXsXsXsXsXsXsXsXsXsXsXsXsXsXsXsX< sXsXq C Q F H g : 1 q l c w sXsXc * sX1.sXsXsXsXsXsXsXsXsXsXsXsXsXsXsXsXsXsXsXsXsXsX",
"sXsXsXsX1.1.sXsXsXsXsXsXsXsXsXsXsXsXsXsXsX* * * * * * 3 * < * * * 3 * * * * * * sXsXsXsXsXsXsXsXsXsXsXsXsXsXsXsXsXsXsXsXsXsXsXsX",
"sXsXsXsX5.5.sXsXsXsXsXsXsXsXsXsXsXsXsXsXsX^ * * * < 0 & * * e * * & 0 * * < * * sXsXsXsXsXsXsXsXsXsXsXsXsXsXsXsXsXsXsXsXsXsXsXsX",
"sXsXsX1.5.5.4.sXsXsXsXsXsXsXsXsXsXsXsXsXsXsXsXl * p.V.s + @.A.{ + I C.d.5 c sXsXsXsXsXsXsXsXsXsXsXsXsXsXsXsXsXsXsXsXsXsXsXsXsXsX",
"sXsXsXsXsX1.5.5.1.sXsXsXsXsXsXsXsXsXsXsXsXsXsXj d $X5Xe.. U.6XZ.  a.3XyX} l sXsXsXsXsXsXsXsXsXsXsXsXsXsXsXsXsXsXsXsXsXsXsXsXsXsX",
"sXsXsXsXsXsX1.5.5.5.5.1.sXsXsXsXsXsXsXsXsXsXsXh Y .X+Xy.$ I.oXA.. g.OX[.W l sXsXsXsXsXsXsXsXsXsXsXsXsXsXsXsXsXsXsXsXsXsXsXsXsXsX",
"sXsXsXsXsXsXsXsX1.5.5.5.5.5.sXsXsX5.4.<.sXsXsXh ) 1XqXg.@ {.8X^.O J.9X=Xf z sXsXsXsXsXsXsXsXsXsXsXsXsXsXsXsXsXsXsXsXsXsXsXsXsXsX",
"sXsXsXsXsXsXsXsXsX1.5.5.5.5.5.5.5.5.1.sXsXsXsXk S b.l.| 6 s.f.u.h c.K.x.Z v sXsXsXsXsXsXsXsXsXsXsXsXsXsXsXsXsXsXsXsXsXsXsXsXsXsX",
"sXsXsXsXsXsXsXsXsXsXsXsXsXsXsXsX2.1.sXsXsX3 r r = : : , q h + , q H m - v c sX3 sXsXsXsXsXsXsXsXsXsXsXsXsXsXsXsXsXsXsXsXsXsXsXsX",
"sXsXsXsXsXsXsXsXsXsXsXsXsXsXsXsXsXsXsXsXsXG * * * * * * * * * * * * * * * * * * sXsXsXsXsXsXsXsXsXsXsXsXsXsXsXsXsXsXsXsXsXsXsXsX",
"sXsXsXsXsXsXsXsXsXsXsXsXsXsXsXsXsXsXsXsXsX8.G * * * * * * * * * * * * * * * * 3 sXsXsXsXsXsXsXsXsXsXsXsXsXsXsXsXsXsXsXsXsXsXsXsX",
"sXsXsXsXsXsXsXsXsXsXsXsXsXsXsXsXsXsXsXsXsXsX3.q * $ % * * & $ % * * % $ & * 3 sXsXsXsXsXsXsXsXsXsXsXsXsXsXsXsXsXsXsXsXsXsXsXsXsX",
"sXsXsXsXsXsXsXsXsXsXsXsXsXsXsXsXsXsXsXsXsXsXsXv 7 ..R % & u O.P % % d +.i & q sXsXsXsXsXsXsXsXsXsXsXsXsXsXsXsXsXsXsXsXsXsXsXsXsX",
"sXsXsXsXsXsXsXsXsXsXsXsXsXsXsXsXsXsXsXsXsXsXsX$ $.OX_.Y X z.XXS.< t P.oXf.o sXsXsXsXsXsXsXsXsXsXsXsXsXsXsXsXsXsXsXsXsXsXsXsXsXsX",
"sXsXsXsXsXsXsXsXsXsXsXsXsXsXsXsXsXsXsXw 8 3 q - j.wX0XN.0 *X%XeXR &.rX1X!.$ N ~ 7.-.sXsXsXsXl sXsXc sXsXsXsXr sXsXl sXsXsXsXsXsX",
"sXsXsXsXsXsXsXsXsXsXsXsXsXsXsXsXsXsXsXsX= * < > r.&X}.U.a oX(.*X` k.#X+XN., 3 * n B sXsXsXsXsXsXsXr sXsXsXsXsXq w sXsXsXsXsXsXsX",
"sXsXsXsXsXn sXq sXsXsXsXv sXsXsXsXsXsXsX3 * * 4 [ <XXXOXd @XXX<X_ D.$X1Xr.: * * * sXsXsXsXsXsXw 9 3 sXsXsXsXr q sXsXsXsXsXsXsXsX",
"sXsXsXsXsXsXsXq sXsXsXsXq q w sXsXsXsXsXq * * 6 L 3X:X9XT *X>XrX_ oX1XtXo.4 * * 3 sXsXsXsXsXsXsXsX8 sXsXsXsX3 sXsXsXsXsXsXsXsXsX",
"sXsXsXsXsXsXsXsXq sXsXsXq sXsXsXsXsXsXsXsX* * 3 q A.`.|.( L.(.'.Y Q.(.(.S q * * 9 sXsXsXsXsXsXsXsX3 sXsXsX8 3 sXsXsXsXsXsXsXsXsX",
"sXsXsXsXsXsXsXsX8 sXsXsX9 sXsXsXsXsXsXsXsX3 * * ; n.3X7X#._.-X*X' ;X;X~.5 3 * * sXsXsXsXsXsXsXsXsXv 3 9 3 q sXq 9 sXsXsXsXsXsXsX",
"sXsXsXsXsXsXsXr q 9 q 9 r sXsXsXsXsXsXsXsX3 * * > w.6X7Xq.T.,X$X .2X4Xm.> * * * sXsXsXsXsXsXsXsXsXsX* q sXsXsXsXsXx sXsXsXsXsXsX",
"sXsXsXsXsXsXc sXsXsXsX3 q sXsXsXsXsXsXsXsXl * * q A $.%.U ] $.X.p $.%.Y q * * 3 sXsXsXsXsXsXq sXsXsX< sXsXsXsXsXsXb sXsXsXsXsXsX",
"sXsXsXsXsXsXsXsXsXsXsX3 q sXsXr sXsXsXsXsX3 * * * * + + % $ # $ & + + & 3 * * * q sXsXsXsXsXr 3 r sX3 3 sXsXsXsXsXsXsXsXsXsXsXsX",
"sXsXsXsXsXsXsXsXsXsXx * 3 q 9 sXsXsXsXsX3 * * * * * * * * * * * * * * * * * * * * sXsXsXsXsXsXsX8 9 3 * 9 sXsXsXsXsXsXsXsXsXsXsX",
"sXsXsXsXsXsXsXsXsXsXq * sXsXsXsXsXsXsXsX= * * * * * * * * * * * * * * * * * * * * 9 sXsXsXsXsXsXsXsXsX* 3 sXsXsXsXsXsXsXsXsXsXsX",
"sXsXsXsXsXsXsXc sXsX3 < sXsXsXsXsXsX3 * * * * * * * * * * * * * * * * * * * * * * 3 sXsXsXsXr sXsXsXsXq * sXsXsXr sXsXsXsXsXsXsX",
"sXsXsXsXsXsXsXq sXsX3 = sXsXsXq sXsX* * * * * * * * * * * * * * * * * * * * * * * * sXsXsXsXl sXsXsXsXw * sXsXsXq sXsXsXsXsXsXsX",
"sXsXsXsXsXsXsXq 8 3 * * sXsXsXq sXsX* * * * * * * * * * * * * * * * * * * * * * * * q sXsXsXsX9 sXsXsX3 * 3 * 3 3 sXsXsXsXsXsXsX",
"sXsXsXsXsXsXsXsXr sXsX* * 3 3 sXsX8 * * * * * * * * * * * * * * * * * * * * * * * * 3 q sXsXsX3 3 sX3 * * sXq q sXc sXsXsXsXsXsX",
"sXsXsXsXsXsXsXsXc sXsXsX* * * 3 9 * * * * * * * * * * * * * * * * * * * * * * * * * * * 3 sXsXsX3 * * * sXsXsX3 sXsXsXsXsXsXsXsX",
"sXsXsXsXsXsXsXsXsXsXsXsXsX9 3 * * * * * * * * * * * * * * * * * * * * * * * * * * * * * = q 3 3 * * * sXsXsXsXl sXsXsXsXsXsXsXsX",
"sXsXsXsXsXsXsXsXsXsXsXsXsXsXsXsX3 * * * * * * * * * * * * * * * * * * * * * * * * * * * * * * * * 3 sXsXsXsXc sXsXsXsXsXsXsXsXsX",
"sXsXsXsXsXsXsXsXsXsXsXsXsXq q q < * * * * * * * * * * * * * * * * * * * * * * * * * * * * * 3 sXsXsXsXsXsXsXsXsXsXsXsXsXsXsXsXsX",
"sXsXsXsXsXsXsXsXsXsXsXsX3 * * * * * * * * * * * * * * * * * * * * * * * * * * * * * * * * 3 sXsXsXsXsXsXsXsXsXsXsXsXsXsXsXsXsXsX",
"sXsXsXsXsXsXsXsXsXsXsXsX< * * * * * * * * * * * * * * * * * * * * * * * * * * * * * * * * * sXsXsXsXsXsXsXsXsXsXsXsXsXsXsXsXsXsX",
"sXsXsXsXsXsXsXsXsXsXsXsX* * * * * * * * * * * * * * * * * * * * * * * * * * * * * * * * * * q sXsXsXsXsXsXsXsXsXsXsXsXsXsXsXsXsX",
"sXsXsXsXsXsXsXsXsXsXsX9 * * * * * * * * * * * * * * * * * * * * * * * * * * * * * * * * * * 3 sXsXsXsXsXsXsXsXsXsXsXsXsXsXsXsXsX",
"sXsXsXsXsXsXsXsXsXsXsX3 * * * * * * * * * * * * * * * * * * * * * * * * * * * * * * * * * * * * * * sXsXsXsXsXsXsXsXsXsXsXsXsXsX",
"sXsXsXsXsXsXsXsXsXsXsX* * * * * * * * * * * * * * * * * * * * * * * * * * * * * * * * * * * * * * * sXsXsXsXsXsXsXsXsXsXsXsXsXsX",
"sXsXsXsXsXsXsXsXsXsXq * * * * * * * * * * * * * * * * * * * * * * * * * * * * * * * * * * * * * * * 3 sXsXsXsXsXsXsXsXsXsXsXsXsX",
"sXsXsXsXsXsXsXsXsXsX3 * * * * * * * * * * * * * * * * * * * * * * * * * * * * * * * * * * * * * * * 3 sXsXsXsXsXsXsXsXsXsXsXsXsX"
};
