/* XPM */
static char *result[] = {
/* columns rows colors chars-per-pixel */
"64 64 128 2 ",
"   c #010101",
".  c #090605",
"X  c #070907",
"o  c #0E0B06",
"O  c #0D0109",
"+  c #0A0B0A",
"@  c #110D07",
"#  c #14000E",
"$  c #110E0D",
"%  c #0F100F",
"&  c #1A140D",
"*  c #1E180C",
"=  c #1C0013",
"-  c #131313",
";  c #1E1711",
":  c #1F1812",
">  c #1B1B1B",
",  c #380403",
"<  c #241C0F",
"1  c #280A1A",
"2  c #281F10",
"3  c #35291E",
"4  c #222323",
"5  c #2C2925",
"6  c #2C2C2C",
"7  c #3A2C21",
"8  c #3F382C",
"9  c #343434",
"0  c #3A3A3B",
"q  c #47211B",
"w  c #4E291D",
"e  c #52231F",
"r  c #42331A",
"t  c #453528",
"y  c #66302E",
"u  c #544121",
"i  c #5A4624",
"p  c #5E4925",
"a  c #5E4835",
"s  c #695229",
"d  c #72582D",
"f  c #66413C",
"g  c #68413C",
"h  c #604A38",
"j  c #6F553F",
"k  c #70563F",
"l  c #444444",
"z  c #4B4B4C",
"x  c #4F4F50",
"c  c #545454",
"v  c #5D5D5D",
"b  c #744C43",
"n  c #6F5540",
"m  c #745841",
"M  c #7A5C43",
"N  c #66635E",
"B  c #68655E",
"V  c #656565",
"C  c #6C6C6D",
"Z  c #747374",
"A  c #777778",
"S  c #7A797A",
"D  c #866836",
"F  c #896B36",
"G  c #8B6B5A",
"H  c #916553",
"J  c #926F51",
"K  c #81755F",
"L  c #88715D",
"P  c #967354",
"I  c #92745B",
"U  c #9B7758",
"Y  c #907E5F",
"T  c #9F7A5A",
"R  c #A76B50",
"E  c #AD7759",
"W  c #A67E5C",
"Q  c #A87B5C",
"!  c #B27457",
"~  c #877960",
"^  c #8A7769",
"/  c #AB7A61",
"(  c #AD8644",
")  c #AF8E54",
"_  c #BC995C",
"`  c #978677",
"'  c #A18A60",
"]  c #A0836B",
"[  c #B18762",
"{  c #B68B66",
"}  c #B98B67",
"|  c #B39561",
" . c #B99961",
".. c #BF926B",
"X. c #AD8F79",
"o. c #C8A15E",
"O. c #C2936C",
"+. c #C39672",
"@. c #C99472",
"#. c #CD9973",
"$. c #D19B75",
"%. c #C7A262",
"&. c #D6A377",
"*. c #DBA57B",
"=. c #DEA97C",
"-. c #E0B263",
";. c #E8B763",
":. c #E0AA7E",
">. c #858585",
",. c #909090",
"<. c #979798",
"1. c #A5A5A6",
"2. c #DAA480",
"3. c #DBA880",
"4. c #E4AE82",
"5. c #E8AE84",
"6. c #E7B387",
"7. c #EFB685",
"8. c #E2B48E",
"9. c #F1B787",
"0. c #F5BB8B",
"q. c #FBBF8C",
"w. c #E6B690",
"e. c #EEBB90",
"r. c #FEC18E",
"t. c #F5C095",
"y. c #F5C7A1",
"u. c None",
/* pixels */
"u.u.u.u.u.u.u.u.u.u.u.u.u.u.u.u.u.u.u.u.u.u.u.u.u.u.u.u.u.u.u.u.u.u.u.u.u.u.u.u.u.u.u.u.u.u.u.u.u.u.u.u.u.u.u.u.u.u.u.u.u.u.u.u.",
"u.u.u.u.u.u.u.u.u.u.u.u.u.u.u.u.u.u.u.u.u.u.u.u.u.u.u.u.u.u.u.u.u.u.u.u.u.u.u.u.u.u.u.u.u.u.u.u.u.u.u.u.u.u.u.u.u.u.u.u.u.u.u.u.",
"u.u.u.u.u.u.u.u.u.u.u.u.u.u.u.u.u.u.u.u.u.u.u.u.u.u.u.u.u.u.          u.u.u.u.u.u.u.u.u.u.u.u.u.u.u.u.u.u.u.u.u.u.u.u.u.u.u.u.u.",
"u.u.u.u.u.u.u.u.u.u.u.u.u.u.u.u.u.u.u.u.u.u.u.u.u.u.u.u.u.  - %           u.u.u.u.u.u.u.u.u.u.u.u.u.u.u.u.u.u.u.u.u.u.u.u.u.u.u.",
"u.u.u.u.u.u.u.u.u.u.u.u.u.u.u.u.u.u.u.u.u.u.u.u.u.u.u.u.  X 4 -   u.u.u.    u.u.u.u.u.u.u.u.u.u.u.u.u.u.u.u.u.u.u.u.u.u.u.u.u.u.",
"u.u.u.u.u.u.u.u.u.u.u.u.u.u.u.u.u.u.u.u.u.u.u.u.u.u.u.u.X 4 > .     u.u.    u.u.u.u.u.u.u.u.u.u.u.u.u.u.u.u.u.u.u.u.u.u.u.u.u.u.",
"u.u.u.u.u.u.u.u.u.u.u.u.u.u.u.u.u.u.u.u.u.u.u.u.u.u.u.u.+ -         u.u.    u.u.u.u.u.u.u.u.u.u.u.u.u.u.u.u.u.u.u.u.u.u.u.u.u.u.",
"u.u.u.u.u.u.u.u.u.u.u.u.u.u.u.u.u.u.u.u.u.u.u.u.u.u.u.u.              u.u.u.u.u.u.u.u.u.u.u.u.u.u.u.u.u.u.u.u.u.u.u.u.u.u.u.u.u.",
"u.u.u.u.u.u.u.u.u.u.u.u.u.u.u.u.u.u.u.u.u.u.u.u.u.u.u.u.                u.u.u.u.u.u.u.u.u.u.u.u.u.u.u.u.u.u.u.u.u.u.u.u.u.u.u.u.",
"u.u.u.u.u.u.u.u.u.u.u.u.u.u.u.u.u.u.u.u.u.u.u.u.u.u.u.u.                  u.u.u.u.u.u.u.u.u.u.u.u.u.u.u.u.u.u.u.u.u.u.u.u.u.u.u.",
"u.u.u.u.u.u.u.u.u.u.u.u.u.u.u.u.u.u.u.u.u.u.u.u.u.u.u.u.u.                  u.u.u.u.u.u.u.u.u.u.u.u.u.u.u.u.u.u.u.u.u.u.u.u.u.u.",
"u.u.u.u.u.u.u.u.u.u.u.u.u.u.u.u.u.u.u.u.u.u.u.u.u.u.u.u.u.                    u.u.u.u.u.u.u.u.u.u.u.u.u.u.u.u.u.u.u.u.u.u.u.u.u.",
"u.u.u.u.u.u.u.u.u.u.u.u.u.u.u.u.u.u.u.u.u.u.u.u.u.u.u.u.u.u.                    u.u.u.u.u.u.u.u.u.u.u.u.u.u.u.u.u.u.u.u.u.u.u.u.",
"u.u.u.u.u.u.u.u.u.u.u.u.u.u.u.u.u.u.u.u.u.u.u.u.u.u.u.u.u.u.                . p ) | ;.u.u.u.u.u.u.u.u.u.X   u.u.u.u.u.u.u.u.u.u.",
"u.u.u.u.u.u.u.u.u.u.u.u.u.u.u.u.u.u.u.u.u.u.u.u.u.u.u.u.u.u.u.              5 _ ~ v Y -.u.u.u.u.u.  $ 6 $ u.u.u.u.u.u.u.u.u.u.u.",
"u.u.u.u.u.u.u.u.u.u.u.u.u.u.u.u.u.u.u.u.u.u.u.u.u.u.u.u.u.u.u.          X 0 v C  .B B o.p         . 4 > u.u.u.u.u.u.u.u.u.u.u.u.",
"u.u.u.u.u.u.u.u.u.u.u.u.u.u.u.u.u.u.u.u.u.u.u.u.u.u.u.u.u.u.u.u.      4 z v v v ) | | D .         - % u.u.u.u.u.u.u.u.u.u.u.u.u.",
"u.u.u.u.u.u.u.u.u.u.u.u.u.u.u.u.u.u.u.u.u.u.u.u.u.u.u.u.u.u.u.u.u.- 0 v v v v v V %.( @         . u.u.u.u.u.u.u.u.u.u.u.u.u.u.u.",
"u.u.u.u.u.u.u.u.u.u.u.u.u.u.u.u.u.u.u.u.u.u.u.u.u.u.u.u.u.u.u.u.u.u.v v v v v v x 8 *         . u.u.u.u.u.u.u.u.u.u.u.u.u.u.u.u.",
"u.u.u.u.u.u.u.u.u.u.u.u.u.u.u.u.u.u.u.u.u.u.u.u.u.u.u.u.u.u.u.u.u.u.v v v V v l -           7 J u.u.u.u.u.u.u.u.u.u.u.u.u.u.u.u.",
"u.u.u.u.u.u.u.u.u.u.u.u.u.u.u.u.u.u.u.u.u.u.u.u.u.u.u.u.u.u.u.u.u.u.v v v x 5 .         % a J O.u.u.u.u.u.u.u.u.u.u.u.u.u.u.u.u.",
"u.u.u.u.u.u.u.u.u.u.u.u.u.u.u.u.u.u.u.u.u.u.u.u.u.u.u.u.u.u.u.u.u.u.u.c 0 +           3 I ` ~ w.u.u.u.u.u.u.u.u.u.u.u.u.u.u.u.u.",
"u.u.u.u.u.u.u.u.u.u.u.u.u.u.u.u.u.u.u.u.u.u.u.u.u.u.u.u.u.u.u.u.u.u.u.-           : k [ ..X.^ y.q.q.q.u.u.u.u.u.u.u.u.u.u.u.u.u.",
"u.u.u.u.u.u.u.u.u.u.u.u.u.u.u.u.u.u.u.u.u.u.u.u.u.u.u.u.u.u.u.u.u.u.          & a W O.W *.q.0.0.q.q.r.q.u.u.u.u.u.u.u.u.u.u.u.u.",
"u.u.u.u.u.u.u.u.u.u.u.u.u.u.u.u.u.u.u.u.u.u.u.u.u.u.u.u.u.u.u.u.u.          7 P } ..{ M :.r.0.3.:.r.q.q.6.u.u.u.u.u.u.u.u.u.u.u.",
"u.u.u.u.u.u.u.u.u.u.u.u.u.u.u.u.u.u.u.u.u.u.u.u.u.u.u.u.u.+   X X X         t U { ..W w O.r.q.=.O.0.q.q.q.q.u.u.u.u.u.u.u.u.u.u.",
"u.u.u.u.u.u.u.u.u.u.u.u.u.u.u.u.u.u.u.u.u.u.u.u.u.u.u.- - . + - % .         ; T ..+.E , G e.0.q.0.u.u.q.q.q.u.u.u.u.u.u.u.u.u.u.",
"u.u.u.u.u.u.u.u.u.u.u.u.u.u.u.u.u.u.u.u.u.u.u.u.u.% - +                     . J O.4.R , q ] t.e.u.u.u.u.u.q.u.u.u.u.u.u.u.u.u.u.",
"u.u.u.u.u.u.u.u.u.u.u.u.u.u.u.u.u.u.u.u.u.u.u.u.% +                           j &.0.! y e u.u.u.u.u.u.u.u.u.u.u.u.u.u.u.u.u.u.u.",
"u.u.u.u.u.u.u.u.u.u.u.u.u.u.u.u.u.u.u.u.u.u.u.X X                             3 &.q.5.2.@.w.u.u.u.u.u.u.u.u.u.u.u.u.u.u.u.u.u.u.",
"u.u.u.u.u.u.u.u.u.u.u.u.u.u.u.u.u.u.u.u.u.u.u..                                 m 0.r.q.r.q.q.u.u.u.u.u.u.u.u.u.u.u.u.u.u.u.u.u.",
"u.u.u.u.u.u.u.u.u.u.u.u.u.u.u.u.u.u.u.u.u.u.X                                   . u.r.q.q.q.q.q.u.u.u.u.u.u.u.u.u.u.u.u.u.u.u.= ",
"u.u.u.u.u.u.u.u.u.u.u.u.u.u.u.u.u.u.u.u.u.u..                                     u.u.u.u.u.u.q.u.u.u.u.u.u.u.u.u.u.u.u.= = u.u.",
"u.u.u.u.u.u.u.u.u.u.u.u.u.u.u.u.u.u.u.u.u.+                               . X     u.u.u.u.u.u.u.u.u.u.u.u.u.u.u.u.= = = u.u.u.u.",
"u.u.u.u.u.u.u.u.u.u.u.u.u.u.u.u.u.u.u.u.u.X                                 . + % .   u.u.u.u.u.u.u.u.u.u.u.u.= = u.u.u.u.u.u.u.",
"u.u.u.u.u.u.u.u.u.u.u.u.u.u.u.u.u.u.u.u.u.                                      .         j { u.u.u.:.*.1 = = u.u.u.u.u.u.u.u.u.",
"u.u.u.u.u.u.u.u.u.u.u.u.u.u.u.u.u.u.u.u.                                                  M @.n u.$.$.*.H u.u.u.u.u.u.u.u.u.u.u.",
"u.u.u.u.u.u.u.u.u.u.u.u.u.u.u.u.u.u.u.u..                                             . M 9.#.g b @.9.q.u.u.u.u.u.u.u.u.u.u.u.u.",
"u.u.u.u.u.u.u.u.u.u.u.u.u.u.u.u.u.u.u.u.% + .                                       ; } 0.r.3./ #.u.u.u.u.u.u.u.u.u.u.u.u.u.u.u.",
"u.u.u.u.u.u.u.u.. X X u.u.u.u.u.u.u.u.    + + X X .                               . # g 9.r.q.r.u.u.u.u.u.u.u.u.u.u.u.u.u.u.u.u.",
"u.u.u.u.u.u.u.u.u.    .     u.u.u.u.            . X X .           . .       . O # = u.u.u.q.u.u.u.u.u.u.u.u.u.u.u.u.u.u.u.u.u.u.",
"u.u.u.u.u.u.u.u.u.u.                                                  X . - = = u.u.u.u.u.u.u.u.u.u.u.u.u.u.u.u.u.u.u.u.u.u.u.u.",
"u.u.u.u.u.u.u.u.u.u.u.                                                  $ u.u.u.u.u.u.u.u.u.u.u.u.u.u.u.u.u.u.u.u.u.u.u.u.u.u.u.",
"u.u.u.u.u.u.u.u.u.u.u.u.                                                u.u.u.u.u.u.u.u.u.u.u.u.u.u.u.u.u.u.u.u.u.u.u.u.u.u.u.u.",
"u.u.u.u.u.u.u.u.u.u.u.u.                                                u.u.u.u.u.u.u.u.u.u.u.u.u.u.u.u.u.u.u.u.u.u.u.u.u.u.u.u.",
"u.u.u.u.u.u.u.u.u.u.u.u.                                                u.u.u.u.u.u.u.u.u.u.u.u.u.u.u.u.u.u.u.u.u.u.u.u.u.u.u.u.",
"u.u.u.u.u.u.u.u.u.u.u.u.                                                u.u.u.u.u.u.u.u.u.u.u.u.u.u.u.u.u.u.u.u.u.u.u.u.u.u.u.u.",
"u.u.u.u.u.u.u.u.u.u.u.u.    . X - X                                     X u.u.u.u.u.u.u.u.u.u.u.u.u.u.u.u.u.u.u.u.u.u.u.u.u.u.u.",
"u.u.u.u.u.u.u.u.u.u.u.u.6 l V S >.0                                   X + u.u.u.u.u.u.u.u.X u.u.u.u.u.u.u.u.u.u.u.u.u.u.u.u.u.u.",
"u.u.u.- - 4 6 0 l x c v C C Z v 6 X                                     X + u.u.u.u.u.u.u.X u.u.u.u.u.u.u.u.u.u.u.u.u.u.u.u.u.u.",
"u.u.+ > 4 6 9 0 0 l l c v V S A V 9 X                                     + + X + X u.+ X u.u.u.u.u.u.u.u.u.u.u.u.u.u.u.u.u.u.u.",
"u.+ + - - > 4 6 0 z c V A >.,.<.1.<.u.                                    X X X X + X + + u.u.u.u.u.u.u.u.u.u.u.u.u.u.u.u.u.u.u.",
"u.u.u.> 4 4 9 0 l x c v V C S >.u.u.u.u.                                    X + + + X X u.u.u.u.u.u.u.u.u.u.u.u.u.u.u.u.u.u.u.u.",
"u.u.- > 4 5 6 0 l l z x c v V u.u.u.u.u.                                  * u.X X u.u.u.u.u.u.u.u.u.u.u.u.u.u.u.u.u.u.u.u.u.u.u.",
"u.X - - > 4 6 9 9 0 l z z u.u.u.u.u.u.u.                  u.            2 s u.u.u.u.u.u.u.u.u.u.u.u.u.u.u.u.u.u.u.u.u.u.u.u.u.u.",
"u.u.+ - > > 4 4 6 0 0 0 u.u.u.u.u.u.u.                u.u.u.u.u.u.u.    < u i F u.u.u.u.u.u.u.u.u.u.u.u.u.u.u.u.u.u.u.u.u.u.u.u.",
"u.u.u.% + % 4 4 4 6 6 u.u.u.u.u.u.u.            u.u.u.u.u.u.u.u.u.u.u.u.u.r d o   u.u.u.u.    u.u.u.u.u.u.u.u.u.u.u.u.u.u.u.u.u.",
"u.u.u.u.u.- 4 4 4 u.u.u.u.u.u.u.u.u.u.u.u.u.u.u.u.u.u.u.u.u.u.u.u.u.u.u.u.. .               u.u.u.u.u.u.u.u.u.u.u.u.u.u.u.u.u.u.",
"u.u.u.u.% u.- u.u.u.u.u.u.u.u.u.u.u.u.u.u.u.u.u.u.u.u.u.u.u.u.u.u.u.u.u.u.                u.u.u.u.u.u.u.u.u.u.u.u.u.u.u.u.u.u.u.",
"u.u.u.u.u.u.u.u.u.u.u.u.u.u.u.u.u.u.u.u.u.u.u.u.u.u.u.u.u.u.u.u.u.u.u.u.u.u.            u.u.u.u.u.u.u.u.u.u.u.u.u.u.u.u.u.u.u.u.",
"u.u.u.u.u.u.u.u.u.u.u.u.u.u.u.u.u.u.u.u.u.u.u.u.u.u.u.u.u.u.u.u.u.u.u.u.u.u.u.  u.u.u.u.u.u.u.u.u.u.u.u.u.u.u.u.u.u.u.u.u.u.u.u.",
"u.u.u.u.u.u.u.u.u.u.u.u.u.u.u.u.u.u.u.u.u.u.u.u.u.u.u.u.u.u.u.u.u.u.u.u.u.u.u.u.u.u.u.u.u.u.u.u.u.u.u.u.u.u.u.u.u.u.u.u.u.u.u.u.",
"u.u.u.u.u.u.u.u.u.u.u.u.u.u.u.u.u.u.u.u.u.u.u.u.u.u.u.u.u.u.u.u.u.u.u.u.u.u.u.u.u.u.u.u.u.u.u.u.u.u.u.u.u.u.u.u.u.u.u.u.u.u.u.u.",
"u.u.u.u.u.u.u.u.u.u.u.u.u.u.u.u.u.u.u.u.u.u.u.u.u.u.u.u.u.u.u.u.u.u.u.u.u.u.u.u.u.u.u.u.u.u.u.u.u.u.u.u.u.u.u.u.u.u.u.u.u.u.u.u."
};
