/* XPM */
static char *result[] = {
/* columns rows colors chars-per-pixel */
"64 64 220 2 ",
"   c #7B291F",
".  c #6D2423",
"X  c #7A2823",
"o  c #39452B",
"O  c #47502B",
"+  c #49522D",
"@  c #4B5634",
"#  c #525B36",
"$  c #48482D",
"%  c #734D2E",
"&  c #725032",
"*  c #5C643B",
"=  c #61693F",
"-  c #5E6643",
";  c #656D43",
":  c #727A4C",
">  c #747C51",
",  c #6A7245",
"<  c #822C25",
"1  c #8D2D28",
"2  c #922F2A",
"3  c #8C3226",
"4  c #95312A",
"5  c #9B352B",
"6  c #9C392A",
"7  c #963926",
"8  c #A2362B",
"9  c #A43B2B",
"0  c #AA3E2C",
"q  c #A03F27",
"w  c #9B4029",
"e  c #9A492C",
"r  c #A4432A",
"t  c #AC432C",
"y  c #AC4A2B",
"u  c #A94E27",
"i  c #B2452C",
"p  c #B44B2C",
"a  c #BA4D2C",
"s  c #AE532B",
"d  c #B5522C",
"f  c #BC532C",
"g  c #BD5B2D",
"h  c #B7582D",
"j  c #A85533",
"k  c #B45B34",
"l  c #B75932",
"z  c #BE632E",
"x  c #B9692E",
"c  c #BD6432",
"v  c #BA6838",
"b  c #B26837",
"n  c #C2552C",
"m  c #C25B2C",
"M  c #CA5D2C",
"N  c #C4622C",
"B  c #CD632C",
"V  c #C46B2E",
"C  c #CD6C2D",
"Z  c #D1652B",
"A  c #D56C2C",
"S  c #CC722E",
"D  c #CB792D",
"F  c #D4742D",
"G  c #D8742C",
"H  c #D67A2D",
"J  c #DA7C2D",
"K  c #C36330",
"L  c #C96A32",
"P  c #C47134",
"I  c #C97332",
"U  c #CC7D32",
"Y  c #C87739",
"T  c #D57B33",
"R  c #DA7F31",
"E  c #D17837",
"W  c #B06C4D",
"Q  c #C57642",
"!  c #7D8457",
"~  c #DB832D",
"^  c #DD8C2E",
"/  c #D2842E",
"(  c #DD942F",
")  c #DE992F",
"_  c #C98538",
"`  c #D38333",
"'  c #DB8334",
"]  c #D58B32",
"[  c #DD8B33",
"{  c #DA843C",
"}  c #D48D3C",
"|  c #D9883B",
" . c #D49334",
".. c #DB9432",
"X. c #DC9A32",
"o. c #D5933C",
"O. c #DA923C",
"+. c #D89D3A",
"@. c #CD832F",
"#. c #E0932E",
"$. c #E2992F",
"%. c #E09532",
"&. c #E19C32",
"*. c #E0943C",
"=. c #E19C3A",
"-. c #DDA334",
";. c #DEAB36",
":. c #D6A83C",
">. c #DFB43B",
",. c #E3A433",
"<. c #E5AB35",
"1. c #E4A33B",
"2. c #E4AD38",
"3. c #E7B236",
"4. c #E6BB36",
"5. c #E4B43D",
"6. c #E6BB3C",
"7. c #E9BA3C",
"8. c #E8B438",
"9. c #EAC436",
"0. c #EDCD3C",
"q. c #ECC838",
"w. c #EFD138",
"e. c #F0D439",
"r. c #828A5D",
"t. c #888F5F",
"y. c #BB864E",
"u. c #8D9464",
"i. c #949A6B",
"p. c #C7854A",
"a. c #D78A44",
"s. c #DA9B43",
"d. c #DB924C",
"f. c #D99847",
"g. c #CA9657",
"h. c #D69B54",
"j. c #CA8B53",
"k. c #E1984A",
"l. c #E19A54",
"z. c #DAA647",
"x. c #DAA756",
"c. c #DEB550",
"v. c #E1AA43",
"b. c #E4A44B",
"n. c #E5A848",
"m. c #E6B747",
"M. c #E4A758",
"N. c #E7B953",
"B. c #CC9968",
"V. c #DBA564",
"C. c #DFB46C",
"Z. c #E6AD65",
"A. c #E9B867",
"S. c #EABD74",
"D. c #E1BE77",
"F. c #DDC144",
"G. c #E7C848",
"H. c #EAD244",
"J. c #ECD84A",
"K. c #F1DA47",
"L. c #EAC758",
"P. c #ECD354",
"I. c #EFDD55",
"U. c #EED45C",
"Y. c #F2DD5C",
"T. c #EFE34A",
"R. c #F2EB4D",
"E. c #F1E248",
"W. c #F2EB53",
"Q. c #F2EC5C",
"!. c #F1E650",
"~. c #EDCE64",
"^. c #E7C36B",
"/. c #F0C56C",
"(. c #EDD566",
"). c #F1DD65",
"_. c #F0D76A",
"`. c #EBC877",
"'. c #F1C976",
"]. c #EED675",
"[. c #F0DA78",
"{. c #F4EE64",
"}. c #F4EE6B",
"|. c #F2E269",
" X c #F5F06B",
".X c #F4E673",
"XX c #F5ED74",
"oX c #F2E37C",
"OX c #F5EC7B",
"+X c #F6F175",
"@X c #F6F07B",
"#X c #F8F47B",
"$X c #EEE16E",
"%X c #EBC984",
"&X c #EDD489",
"*X c #F3D688",
"=X c #F0DF93",
"-X c #F4E585",
";X c #F5EC84",
":X c #F6EA8D",
">X c #F5E789",
",X c #F6F184",
"<X c #F7F28B",
"1X c #F8F48E",
"2X c #F7EE94",
"3X c #F4E99A",
"4X c #F8F494",
"5X c #F8F49B",
"6X c #F7F098",
"7X c #EBDDA2",
"8X c #F6EDA2",
"9X c #F7EEAA",
"0X c #F9F5A3",
"qX c #FAF6AB",
"wX c #FBF8A9",
"eX c #FBF6B4",
"rX c #FCF8BA",
"tX c #FBF8B8",
"yX c #FCF9C2",
"uX c None",
/* pixels */
"uXuXuXuXuXuXuXuXuXuXuXuXuXuXuXuXuXuXuXuXuXuXuXuXuXuXuXuXuXuXuXuXuXuXuXuXuXuXuXuXuXuXuXuXuXuXuXuXuXuXuXuXuXuXuXuXuXuXuXuXuXuXuXuX",
"uXuXuXuXuXuXuXuXuXuXuXuXuXuXuXuXuXuXuXuXuXuXuXuXuXuXuXuXuXuXuXuXuXuXuXuXuXuXuXuXuXuXuXuXuXuXuXuXuXuXuXuXuXuXuXuXuXuXuXuXuXuXuXuX",
"uXuXuXuXuXuXuXuXuXuXuXuXuXuXuXuXuXuXuXuXuXuXuXuXuXuXuXuXuXuXuXuXuXuXuXuXuXuXuXuXuXuXuXuXuXuXuXuXuXuXuXuXuXuXuXuXuXuXuXuXuXuXuXuX",
"uXuXuXuXuXuXuXuXuXuXuXuXuXuXuXuXuXuXuXuXuXuXuXuXuXuXuXuXuXuXuXuXuXuXuXuXuXuXuXuXuXuXuXuXuXuXuXuXuXuXuXuXuXuXuXuXuXuXuXuXuXuXuXuX",
"uXuXuXuXuXuXuXuXuXuXuXuXuXuXuXuXuXuXuXuXuXuXuXuXuXuXuXuXuXuXuXuXuXuXuXuXuXuXuXuXuXuXuXuXuXuXuXuXuXuXuXuXuXuXuXuXuXuXuXuXuXuXuXuX",
"uXuXuXuXuXuXuXuXuXuXuXuXuXuXuXuXuXuXuXuXuXuXuXuXuXuX: ! i.i.uXuXuXuXuXuXuXuXuXuXuXuXuXuXuXuXuXuXuXuXuXuXuXuXuXuXuXuXuXuXuXuXuXuX",
"uXuXuXuXuXuXuXuXuXuXuXuXuXuXuXuXuXuXuXuXuXuXuXuXuXuX@ # ; r.i.t.uXuXuXuXuXuXuXuXuXuXuXuXuXuXuXuXuXuXuXuXuXuXuXuXuXuXuXuXuXuXuXuX",
"uXuXuXuXuXuXuXuXuXuXuXuXuXuXuXuXuXuXuXuXuXuXuXuXuX+ + O + * ! i.u.uXuXuXuXuXuXuXuXuXuXuXuXuXuXuXuXuXuXuXuXuXuXuXuXuXuXuXuXuXuXuX",
"uXuXuXuXuXuXuXuXuXuXuXuXuXuXuXuXuXuXuXuXuXuXuXuXuXuX+ + + # = > i.t.uXuXuXuXuXuXuXuXuXuXuXuXuXuXuXuXuXuXuXuXuXuXuXuXuXuXuXuXuXuX",
"uXuXuXuXuXuXuXuXuXuXuXuXuXuXuXuXuXuXuXuXuXuXuXuXuXuXuXuXuXuX= = r.r.uXuXuXuXuXuXuXuXuXuXuXuXuXuXuXuXuXuXuXuXuXuXuXuXuXuXuXuXuXuX",
"uXuXuXuXuXuXuXuXuXuXuXuXuXuXuXuXuXuXuXuXuXuXuXuXuXuXuXuXuXuXuX; ; r.; uXuXuXuXuXuXuXuXuXuXuXuXuXuXuXuXuXuXuXuXuXuXuXuXuXuXuXuXuX",
"uXuXuXuXuXuXuXuXuXuXuXuXuXuXuXuXuXuXuXuXuXuXuXuXuXuXuXuXuXuXuX, * ! ; uXuXuXuXuXuXuXuXuXuXuXuXuXuXuXuXuXuXuXuXuXuXuXuXuXuXuXuXuX",
"uXuXuXuXuXuXuXuXuXuXuXuXuXuXuXuXuXuXuXuXuXuXuXuXuXuXuXuXuXuXuX, * > ; uXuXuXuXuXuXuXuXuXuXuXuXuXuXuXuXuXuXuXuXuXuXuXuXuXuXuXuXuX",
"uXuXuXuXuXuXuXuXuXuXuXuXuXuXuXuXuXuXuXuXuXuXuXuXuXuXuXuXuXuXuX> - ; # o uXuXuXuXuXuXuXuXuXuXuXuXuXuXuXuXuXuXuXuXuXuXuXuXuXuXuXuX",
"uXuXuXuXuXuXuXuXuXuXuXuXuXuXuXuXuXuXuXuXuXuXuXuXuXuXuXuXuXuXuXuX# # O o uXuXuXuXuXuXuXuXuXuXuXuXuXuXuXuXuXuXuXuXuXuXuXuXuXuXuXuX",
"uXuXuXuXuXuXuXuXuXuXuXuXuXuXuXuXuXuXuXuXuX] d.a.I g d p uXuXuX& & % & $ uXuXy W j.g.j.Q uXuXuXuXuXuXuXuXuXuXuXuXuXuXuXuXuXuXuXuX",
"uXuXuXuXuXuXuXuXuXuXuXuXuXuXuXJ J J J #.%.b.Z.d.G Z M f 4 w d d h g h j j t t l g.`.'.A.d.E B Z A uXuXuXuXuXuXuXuXuXuXuXuXuXuXuX",
"uXuXuXuXuXuXuXuXuXuXuXuXJ J ~ ^ ~ ^ %.&.b.Z.l.R A A Z M l K g K Y I V P p.Q d p k h.'.'.A.k.E Z A A A A uXuXuXuXuXuXuXuXuXuXuXuX",
"uXuXuXuXuXuXuXuXuXuXJ J ^ #.#.^ ~ #.$.=.M.l.{ G A A A A { E C a.f.R H | Z.V.Q M l L k.N.n.b.[ G Z A G G G A uXuXuXuXuXuXuXuXuXuX",
"uXuXuXuXuXuXuXuXuXJ J #.#.#.~ J #.#.%.*.k.R G G G A G a.d.T T l.k.[ ~ | S.%Xl.R L C ' %.,.&.[ H A A A A G G A uXuXuXuXuXuXuXuXuX",
"uXuXuXuXuXuXuXuXG J #.#.^ ~ J ~ ( ^ [ | G G G G G G J k.k.J { M.b.%.^ *.S.*XS.*.G G J ^ ) ) ^ J A A Z A G G G A uXuXuXuXuXuXuXuX",
"uXuXuXuXuXuXuXG J ^ #.^ ~ J ~ ~ ~ J H F G G G G G J ' k.[ ~ k.M.n.%.#.&.A.*X'.b.' G G ^ ^ ^ ~ H A A Z A A A G A Z uXuXuXuXuXuXuX",
"uXuXuXuXuXuXA G ~ ^ ~ J J J J / S s 6 v ' G R J G ~ [ *.[ ~ *.n.1.&.&.&.n././.M.[ J G J [ Y e y Z Z Z Z A G G G A Z uXuXuXuXuXuX",
"uXuXuXuXuXA A J J ~ J J J J H S s 6 p.oX[.a.G G J ~ [ [ [ ^ =.1.1.,.&.&.1.m.N.n.*.J J { ].OXg.r 0 M Z Z A A G G G Z Z uXuXuXuXuX",
"uXuXuXuXuXA G J ~ ^ J J J H S g p L oX1X4X&X{ G ' ~ ^ ^ ^ %.&.1.<.,.$.,.,.,.<.<.=.~ R `.6X4X;Xa.i n M Z A A G G G G B uXuXuXuXuX",
"uXuXuXuXA A G #.$.^ J J H F C m M x.1X5X0XqX`.T J ~ ^ ^ #.%.&.1.<.<.<.,.,.,.,.,.%.' A.qX0X5X1XA.M n n M Z A A A G G B B uXuXuXuX",
"uXuXuXuXA A ~ $.#.#.J J H F B N M /.4X5XqXrXtXS.J ~ ^ ^ #.&.,.<.<.<.<.<.,.,.,.$.^ M.eXrXqX0X4X[.Z M n M Z A A A A G A M uXuXuXuX",
"uXuXuXA A J #.#.#.~ J J H F N M L ].4X0XeXrXyXeX^.a.[ %.&.&.,.<.3.3.<.<.,.,.$.,.A.9XyXyXeXqX5X-XQ M n M Z A A A A G A B M uXuXuX",
"uXuXuXA A J #.#.~ J J J G G B M L [.4X5XqXtXtXeXqX:X_.=.&.,.<.3.3.3.3.<.,.,._.>X5XeXtXtXqX0X4X;XR M M n Z A A A A A A B M uXuXuX",
"uXuXuXA G ~ #.#.~ J J J G A N M E [.<X5X5XqXqX0X5X4XoX=.,.,.<.3.3.3.3.<.<.,._.1X5X0X0XqX0X5X1X;Xa.B n M B A G A A A A B M uXuXuX",
"uXuXuXA G ~ #.^ J J J J G A B I ' ).,X<X4X5X5X4X<X<X~.) ,.<.<.3.3.8.8.<.<.,.N.,X<X4X5X4X4X<X,X.Xo.F M M Z A G A Z L A B M uXuXuX",
"uXuXA A G ~ ~ ~ J J J J J A C ] ] U.+X@X;X<X,X<X,XXXz.$.,.5.m.3.8.8.7.8.<.&.1..X,X,X<X<X,X;X+X).+.` M n B Z G G Z Z B K M B uXuX",
"uXuXZ Z F ~ ~ J J J G J H C C ..,.G.{. X+XOX+XXX+XL...&.v.-X~.3.8.8._.-X7.,.%.m.XXXXXX+X+XXX}.J.-.X.N m Z Z G A Z B M u n M uXuX",
"uXuXZ Z g S J H J F H J H F C  .4.q.!.Q.{.{.{.{.P...#.) V.tX_.3.3.8.[.tXU.,.&.%.G.{.{.}.{.Q.W.0.4...n M B A A A B M d 6 m M uXuX",
"uXuXZ Z u u H H F G G G H H C S 7.w.e.E.R.!.T.G...^ $.) M.6XU.3.3.3.U.6XY.3.&.%.( 6.T.!.R.E.e.w.9.S m B Z Z A Z M m 7 q n M uXuX",
"uXuXZ Z d   u F G H F F H H F C U 2.9.q.9.4.) ~ ~ ..#.<.G.J.6.3.3.3.2.m.e.8.&.$.] ~ ( 3.9.9.9.3.U m B Z B A A B n 6   t n m uXuX",
"uXuXB B m <   d C F F F H F H F F S H T H H H / ^ ( &.,.4.3.3.3.3.3.3.;.3.<.&.&.( ~ H F F D I V B C Z B Z Z _ _ 6 < 1 p n n uXuX",
"uXuXM M N r < 3 I C C F H H F H F F F F F H / ~ ~ ( X.&.,.<.<.3.2.,.2.;.<.,.&.&.) ^ ~ H F A A A A C Z Z B C P.G.w 7 y n n n uXuX",
"uXuXM M m m u 7 :.G.] F F F F F S H F H H H H D ` O...&.,.,.2.;.c.C.U -.,.,.,.$...^ R I F I F F U k r m M B P.L.j V l a n n uXuX",
"uXuXn n m f I h _ R.T.` C F z r w x F F F H z 7 g._.O.#.,.,.-.X.].7Xj  .,.,.,.$...} `.b g G S A d.g.3 t n N P.G.] @.a f n n uXuX",
"uXuXn f n f I ]  .T.R._ C C s 1 e _ C F F H z 1 y.oXo.( ) ,.&. .&X9XW @.,.&.&.&.) a.8XW u C C C p.].x.j.x.L.Q.G...c a f f n uXuX",
"uXuXa p f f g ] ;.0.R.>.+.` v _ F.+.V C A S N q y.oX} ] ) ) ( } =XeXj.D ) ) ) ) ^ z.0XB.t c E h.^.@X+X+X X{.Q.m.U p a f a a uXuX",
"uXuXuXp a f a V ;.q.E.R.R.K.6.9.H.H.m.>.s.O._ p.~.OXf.} o.s.s.x.3XqX%Xg.h.k.s.f.p.C.0X3X`.`.-X<X,XOX(.Y. X{.P...d a a a a uXuXuX",
"uXuXuXi i a a a z ;.w.K.R.>. . . .H.R.W.Q.Q.}. X+XOXoXoX;X:X2X5X5X0XqX8X8X8X8X3X2X3X5X5X5X4X<X<XOXm.] } |.!.+.l p p a a a uXuXuX",
"uXuXuXr t p d f a f @.3.>.x V D @.H.R.R.W.!.I.U.).XX@X,X<X<X4X4X5X5X5X0X0X0X6X6X6X5X5X2XoX~.N.L.oX| h p Q _ n a a p a a p uXuXuX",
"uXuXuX9 9 t a a f a f g z g m m h m.R.R.W.6.2.<.,.L.XX,X;X;X.X|..X6X5X2X).P.G.5.z.[.5X>Xv. .@.f..X| a n a a n p p p i i p uXuXuX",
"uXuXuXuX5 t i p a a f m m N N N z ;.e.R.H. . . .] [ L.#X_.v.-.X.m.2X4X]...X.] ` D A.4X].I g h c :.] f n n n n p p i i i uXuXuXuX",
"uXuXuXuX5 8 0 a a p i f N N N N g -.w.q.:.d V x N C f.+Xx.z m m Y -X1X`.L g V x z x.XXm.d f m h x N n n n n p j i t i t uXuXuXuX",
"uXuXuXuXuX5 9 i p i i p m m l K m c  .;.x h C D V g { }.f.d N N P (.|.L.N V I D x -.q.-.d f N m f f n n n a i t t 0 9 uXuXuXuXuX",
"uXuXuXuXuX4 6 0 t i t 0 l m g f g f d c s h N S V g ..0.+.m N N V 4.4.;.V N C S V U I z a f m m m n a a a i 0 0 9 6 5 uXuXuXuXuX",
"uXuXuXuXuXuX4 9 0 0 t 0 i K l h h h l a h f m V N z U P g m m N N V c g N N V V V N g a a f m g n n i a i i 9 8 5 4 uXuXuXuXuXuX",
"uXuXuXuXuXuXuX4 9 0 0 0 9 l l l p d d l h f d m N m f h m m N m m g m g m N N N N g m a p f f f n 0 n 0 i 9 5 4 4 uXuXuXuXuXuXuX",
"uXuXuXuXuXuXuXuX4 9 9 9 9 9 k k t i p p d d d a g m m g g m m m g m g m m g g m g f f i p p d a 0 0 0 i 0 8 4 2 uXuXuXuXuXuXuXuX",
"uXuXuXuXuXuXuXuXuX2 5 8 9 5 r k j r r y t p y y p f f f g f f f g f g f f f f h d f i t p p p i 0 0 0 8 2 2 2 uXuXuXuXuXuXuXuXuX",
"uXuXuXuXuXuXuXuXuXuX2 5 5 5 5 9 y 9 9 r 9 t t r 0 i p d a d a d d d p d d a p p a i 0 0 t p 0 0 0 0 8 2 2 4 uXuXuXuXuXuXuXuXuXuX",
"uXuXuXuXuXuXuXuXuXuXuXuX2 2 4 2 5 6 5 6 6 9 9 r 7 7 t t y p p y p t p p i t t i i 0 9 0 0 0 8 8 8 8 8 2 uXuXuXuXuXuXuXuXuXuXuXuX",
"uXuXuXuXuXuXuXuXuXuXuXuXuXuXuX2 2 4 5 4 4 4 4 5 4 < 3 8 0 0 r t 0 t 0 0 0 9 0 0 8 8 8 8 5 5 5 8 8 uXuXuXuXuXuXuXuXuXuXuXuXuXuXuX",
"uXuXuXuXuXuXuXuXuXuXuXuXuXuXuXuXuXuXuXuXuXuX< < < X . X 4 4 6 8 8 5 5 6 5 4 6 4 4 4 4 4 uXuXuXuXuXuXuXuXuXuXuXuXuXuXuXuXuXuXuXuX",
"uXuXuXuXuXuXuXuXuXuXuXuXuXuXuXuXuXuXuXuXuXuXuXuXuXuXuX. X < 2 2 2 2 4 2 2 2 2 uXuXuXuXuXuXuXuXuXuXuXuXuXuXuXuXuXuXuXuXuXuXuXuXuX",
"uXuXuXuXuXuXuXuXuXuXuXuXuXuXuXuXuXuXuXuXuXuXuXuXuXuXuXuXuXuXuXuXuXuXuXuXuXuXuXuXuXuXuXuXuXuXuXuXuXuXuXuXuXuXuXuXuXuXuXuXuXuXuXuX",
"uXuXuXuXuXuXuXuXuXuXuXuXuXuXuXuXuXuXuXuXuXuXuXuXuXuXuXuXuXuXuXuXuXuXuXuXuXuXuXuXuXuXuXuXuXuXuXuXuXuXuXuXuXuXuXuXuXuXuXuXuXuXuXuX",
"uXuXuXuXuXuXuXuXuXuXuXuXuXuXuXuXuXuXuXuXuXuXuXuXuXuXuXuXuXuXuXuXuXuXuXuXuXuXuXuXuXuXuXuXuXuXuXuXuXuXuXuXuXuXuXuXuXuXuXuXuXuXuXuX",
"uXuXuXuXuXuXuXuXuXuXuXuXuXuXuXuXuXuXuXuXuXuXuXuXuXuXuXuXuXuXuXuXuXuXuXuXuXuXuXuXuXuXuXuXuXuXuXuXuXuXuXuXuXuXuXuXuXuXuXuXuXuXuXuX",
"uXuXuXuXuXuXuXuXuXuXuXuXuXuXuXuXuXuXuXuXuXuXuXuXuXuXuXuXuXuXuXuXuXuXuXuXuXuXuXuXuXuXuXuXuXuXuXuXuXuXuXuXuXuXuXuXuXuXuXuXuXuXuXuX"
};
